<?xml version="1.0" encoding="utf-8"?>
<!-- Generator: Adobe Illustrator 16.0.4, SVG Export Plug-In . SVG Version: 6.00 Build 0)  -->
<!DOCTYPE svg PUBLIC "-//W3C//DTD SVG 1.1//EN" "http://www.w3.org/Graphics/SVG/1.1/DTD/svg11.dtd">
<svg version="1.1" id="Layer_1" xmlns="http://www.w3.org/2000/svg" xmlns:xlink="http://www.w3.org/1999/xlink" x="0px" y="0px"
	 width="71.375px" height="22.681px" viewBox="-0.457 0 71.375 22.681" enable-background="new -0.457 0 71.375 22.681"
	 xml:space="preserve">
<g id="White" display="none">
	<g display="inline">
		<path fill="#FFFFFF" d="M9.12,0.88c1.253,0,2.433,0.24,3.54,0.72c1.106,0.48,2.07,1.13,2.89,1.95c0.82,0.82,1.47,1.784,1.95,2.89
			c0.48,1.107,0.72,2.287,0.72,3.54c0,1.269-0.24,2.453-0.72,3.562c-0.48,1.105-1.13,2.068-1.95,2.89
			c-0.82,0.819-1.783,1.47-2.89,1.95c-1.107,0.479-2.287,0.72-3.54,0.72c-1.267,0-2.454-0.24-3.56-0.72
			c-1.107-0.48-2.07-1.131-2.89-1.95c-0.82-0.82-1.47-1.783-1.95-2.89C0.24,12.433,0,11.248,0,9.98c0-1.253,0.24-2.433,0.72-3.54
			C1.2,5.333,1.85,4.37,2.67,3.55C3.49,2.73,4.453,2.08,5.56,1.6C6.667,1.12,7.853,0.88,9.12,0.88z M10.8,8.96
			c0.453-0.268,0.823-0.644,1.11-1.13c0.287-0.487,0.41-1.077,0.37-1.771c-0.027-0.413-0.137-0.76-0.33-1.04
			c-0.194-0.279-0.434-0.503-0.72-0.67C10.943,4.184,10.626,4.067,10.28,4C9.933,3.934,9.6,3.9,9.28,3.9
			c-0.507,0-0.96,0.027-1.36,0.08c-0.4,0.054-0.833,0.133-1.3,0.24l0.2,1.6c0.84-0.199,1.7-0.3,2.58-0.3
			c0.16,0,0.336,0.021,0.53,0.061c0.193,0.04,0.336,0.106,0.43,0.2c0.107,0.094,0.18,0.224,0.22,0.39
			c0.04,0.167,0.053,0.337,0.04,0.51c-0.014,0.173-0.054,0.337-0.12,0.49c-0.067,0.153-0.147,0.27-0.24,0.35
			C9.94,7.76,9.65,7.95,9.39,8.09C9.13,8.23,8.907,8.407,8.72,8.62C8.493,8.887,8.35,9.164,8.29,9.45
			C8.23,9.736,8.2,10.053,8.2,10.4v0.96c0,0.188,0.006,0.381,0.02,0.58h1.7v-0.3c0-0.12,0.003-0.28,0.01-0.479
			c0.006-0.199,0.01-0.459,0.01-0.779c0-0.307,0.066-0.574,0.2-0.8C10.273,9.354,10.493,9.147,10.8,8.96z M10.16,13.08H7.94v2.22
			h2.22V13.08z M35.32,0.8c1.253,0,2.437,0.24,3.55,0.72c1.113,0.48,2.08,1.133,2.9,1.96s1.47,1.793,1.95,2.9
			c0.48,1.106,0.72,2.287,0.72,3.54s-0.24,2.433-0.72,3.541c-0.48,1.105-1.13,2.069-1.95,2.89c-0.82,0.819-1.787,1.47-2.9,1.95
			c-1.114,0.479-2.297,0.72-3.55,0.72c-1.253,0-2.433-0.239-3.54-0.72c-1.106-0.48-2.07-1.131-2.89-1.95
			c-0.82-0.819-1.47-1.783-1.95-2.89c-0.48-1.107-0.72-2.287-0.72-3.541c0-1.253,0.24-2.434,0.72-3.54s1.13-2.073,1.95-2.9
			C29.71,2.653,30.673,2,31.78,1.52C32.887,1.04,34.066,0.8,35.32,0.8z M36.5,10.08v0.02l4.58-1.24L40.5,7.1l-4.42,1.7l0.18-4.32
			h-1.82l0.14,4.301V8.8l-4.42-1.7l-0.58,1.76l4.58,1.24l0.02,0.061l-2.96,3.68l1.5,1.101l2.58-3.96h0.06l2.6,3.96l1.48-1.101
			l-2.96-3.68L36.5,10.08z M61.26,0.9c1.253,0,2.434,0.24,3.54,0.721c1.106,0.479,2.07,1.13,2.891,1.949
			c0.819,0.82,1.47,1.784,1.949,2.891c0.48,1.106,0.72,2.287,0.72,3.54c0,1.267-0.24,2.454-0.721,3.56
			c-0.479,1.107-1.13,2.07-1.949,2.892c-0.82,0.818-1.784,1.469-2.891,1.948c-1.107,0.48-2.287,0.722-3.54,0.722
			c-1.267,0-2.453-0.24-3.56-0.722c-1.107-0.479-2.07-1.13-2.89-1.948c-0.82-0.82-1.47-1.783-1.95-2.892
			c-0.48-1.105-0.72-2.293-0.72-3.56c0-1.253,0.24-2.434,0.72-3.54s1.13-2.07,1.95-2.891c0.82-0.819,1.783-1.47,2.89-1.949
			C58.807,1.14,59.993,0.9,61.26,0.9z M60.16,4.06l0.16,7.84h1.84l0.14-7.84H60.16z M62.36,13.1h-2.2v2.22h2.2V13.1z"/>
	</g>
	<g display="inline">
		<path fill="#FFFFFF" d="M88.586,4.801c0.228-0.693,0.678-1.19,1.352-1.49c0.672-0.3,1.469-0.442,2.389-0.43
			c0.174,0,0.387,0,0.641,0c0.255,0,0.515,0.007,0.781,0.02c0.267,0.015,0.535,0.027,0.81,0.04c0.272,0.015,0.522,0.034,0.75,0.061
			l-0.08,1.28c-0.054,0-0.108-0.007-0.17-0.021c-0.06-0.013-0.123-0.02-0.188-0.02c-0.334-0.04-0.681-0.073-1.041-0.101
			c-0.359-0.026-0.699-0.047-1.021-0.06c-0.187,0-0.363,0-0.529,0c-0.168,0-0.329,0.013-0.489,0.04
			c-0.269,0.026-0.511,0.072-0.73,0.14c-0.221,0.067-0.424,0.154-0.609,0.26c-0.4,0.24-0.641,0.58-0.721,1.021
			c-0.014,0.066-0.02,0.14-0.02,0.22s0,0.16,0,0.24c0.025,0.52,0.143,0.942,0.35,1.27s0.463,0.604,0.77,0.83
			c0.014,0.014,0.033,0.03,0.062,0.05c0.028,0.021,0.047,0.037,0.062,0.051l3.039,2.199c0.319,0.229,0.6,0.44,0.84,0.641
			c0.239,0.201,0.45,0.41,0.631,0.631c0.18,0.22,0.322,0.459,0.43,0.72c0.107,0.26,0.18,0.563,0.221,0.909
			c0.039,0.294,0.053,0.594,0.039,0.9c-0.014,0.306-0.066,0.594-0.16,0.859c-0.253,0.733-0.77,1.271-1.549,1.61
			c-0.781,0.34-1.684,0.51-2.711,0.51c-0.188,0-0.41-0.004-0.67-0.01c-0.26-0.008-0.537-0.019-0.83-0.03
			c-0.293-0.014-0.583-0.034-0.869-0.06c-0.287-0.027-0.544-0.056-0.771-0.08l0.08-1.301c0.055,0.014,0.11,0.022,0.17,0.029
			c0.061,0.007,0.117,0.018,0.17,0.03c0.388,0.053,0.801,0.097,1.24,0.13c0.44,0.033,0.834,0.058,1.181,0.069
			c0.134,0.014,0.261,0.018,0.38,0.011c0.12-0.007,0.24-0.011,0.359-0.011c0.399-0.025,0.783-0.086,1.149-0.181
			c0.367-0.093,0.685-0.231,0.951-0.42c0.347-0.239,0.546-0.612,0.601-1.118v-0.342c-0.015-0.307-0.052-0.565-0.111-0.779
			c-0.059-0.213-0.148-0.406-0.271-0.58c-0.118-0.173-0.272-0.336-0.459-0.49c-0.188-0.152-0.407-0.322-0.659-0.51l-3.041-2.181
			c-0.213-0.146-0.424-0.31-0.629-0.489c-0.207-0.181-0.398-0.384-0.57-0.61c-0.174-0.227-0.32-0.486-0.439-0.78
			c-0.121-0.293-0.201-0.633-0.24-1.02C88.381,5.861,88.426,5.308,88.586,4.801z M98.247,17.001v-9.38h1.26v9.38H98.247z
			 M102.307,11.082c0-0.682,0.087-1.254,0.26-1.722c0.174-0.466,0.414-0.843,0.721-1.13c0.308-0.287,0.67-0.493,1.09-0.62
			c0.42-0.126,0.877-0.189,1.371-0.189c0.492,0,0.933,0.06,1.318,0.18c0.146,0.053,0.327,0.083,0.541,0.09
			c0.213,0.008,0.434,0.011,0.66,0.011h0.439c0.278-0.014,0.537-0.037,0.77-0.07s0.471-0.077,0.711-0.13l0.061,1.12
			c-0.026,0.013-0.067,0.022-0.121,0.029c-0.053,0.008-0.112,0.018-0.18,0.03c-0.188,0.027-0.377,0.053-0.57,0.08
			c-0.192,0.027-0.369,0.04-0.529,0.04c-0.026,0-0.061,0.003-0.1,0.01c-0.041,0.007-0.074,0.01-0.102,0.01h-0.1
			c-0.027-0.013-0.029-0.003-0.01,0.03c0.019,0.033,0.043,0.063,0.069,0.09c0.039,0.055,0.08,0.101,0.119,0.141
			c0.146,0.253,0.265,0.547,0.351,0.88c0.088,0.333,0.131,0.713,0.131,1.14c0,0.653-0.08,1.207-0.24,1.66s-0.383,0.826-0.67,1.119
			c-0.287,0.294-0.627,0.514-1.021,0.66c-0.396,0.146-0.817,0.228-1.271,0.24c-0.08,0-0.164,0-0.25,0
			c-0.088,0-0.17-0.007-0.25-0.021c-0.106,0-0.211-0.007-0.311-0.02c-0.101-0.015-0.197-0.027-0.291-0.041
			c-0.025,0-0.057-0.007-0.09-0.021s-0.062-0.02-0.09-0.02l-0.6,0.738c-0.107,0.135-0.188,0.25-0.24,0.352
			c-0.053,0.1-0.073,0.209-0.061,0.33c0.053,0.173,0.2,0.266,0.44,0.278c0.012,0,0.032,0.004,0.06,0.011
			c0.026,0.008,0.047,0.01,0.061,0.01h2.82h0.539c0.826,0.055,1.414,0.297,1.76,0.729c0.348,0.434,0.527,0.95,0.541,1.552v0.18
			c0,0.426-0.08,0.797-0.24,1.109s-0.348,0.569-0.561,0.771c-0.468,0.453-1.039,0.739-1.72,0.86c-0.681,0.119-1.381,0.18-2.101,0.18
			c-0.387,0-0.813-0.033-1.28-0.1c-0.467-0.067-0.854-0.215-1.16-0.44c-0.253-0.187-0.459-0.424-0.618-0.71
			c-0.16-0.287-0.248-0.623-0.261-1.01v-0.26c0.024-0.349,0.146-0.691,0.358-1.031c0.214-0.34,0.453-0.623,0.722-0.851v-0.02
			c0.024-0.027,0.024-0.08,0-0.16c-0.334-0.134-0.547-0.406-0.642-0.82c-0.014-0.065-0.02-0.13-0.02-0.188c0-0.062,0-0.123,0-0.19
			c0.025-0.146,0.072-0.293,0.141-0.439c0.065-0.146,0.172-0.312,0.318-0.5l0.602-0.721l0.021-0.021
			c-0.026-0.012-0.034-0.032-0.021-0.059c0.013-0.027,0.006-0.048-0.021-0.062C102.727,13.541,102.307,12.507,102.307,11.082z
			 M107.426,17.421h-2.68c-0.347,0.227-0.66,0.492-0.939,0.8c-0.279,0.306-0.42,0.64-0.42,1c0,0.507,0.166,0.88,0.5,1.12
			c0.188,0.133,0.447,0.22,0.779,0.26c0.334,0.04,0.627,0.062,0.881,0.062c0.427,0,0.893-0.034,1.399-0.102
			c0.507-0.066,0.939-0.232,1.3-0.5c0.213-0.146,0.36-0.333,0.44-0.56c0.08-0.229,0.119-0.494,0.119-0.801
			c0-0.119-0.021-0.253-0.06-0.4c-0.041-0.146-0.115-0.286-0.221-0.42c-0.107-0.133-0.248-0.242-0.42-0.33
			C107.934,17.464,107.708,17.421,107.426,17.421z M105.747,8.521c-1.479,0-2.22,0.86-2.22,2.58c0,1.707,0.74,2.562,2.22,2.562
			c1.494,0,2.239-0.854,2.239-2.562C107.986,9.381,107.241,8.521,105.747,8.521z M119.426,16.981h-1.299v-7.06
			c0-0.293-0.055-0.53-0.16-0.71c-0.107-0.18-0.24-0.32-0.4-0.42c-0.16-0.101-0.33-0.17-0.51-0.21s-0.35-0.061-0.51-0.061
			c-0.601,0-1.18,0.061-1.74,0.181c-0.561,0.119-1.053,0.333-1.48,0.64v7.64h-1.299V7.621h1.02l0.142,0.6h0.021
			c0.707-0.36,1.34-0.583,1.899-0.67c0.56-0.086,1.101-0.13,1.619-0.13c0.308,0,0.616,0.04,0.931,0.12
			c0.313,0.08,0.598,0.213,0.85,0.399c0.254,0.188,0.465,0.428,0.631,0.721s0.264,0.652,0.29,1.08v7.239H119.426z M122.307,7.721
			c0.52-0.106,1.014-0.183,1.48-0.229c0.465-0.048,1-0.07,1.6-0.07c0.881,0,1.604,0.173,2.17,0.52c0.566,0.348,0.85,0.94,0.85,1.78
			v7.28h-0.859l-0.159-0.621c-0.015,0.014-0.029,0.022-0.05,0.031c-0.021,0.006-0.045,0.022-0.069,0.049
			c-0.041,0.026-0.074,0.055-0.101,0.08c-0.521,0.294-1.021,0.477-1.5,0.551c-0.479,0.072-1.008,0.109-1.58,0.109
			c-0.319,0-0.635-0.062-0.94-0.189s-0.58-0.303-0.819-0.53c-0.24-0.227-0.431-0.497-0.57-0.81
			c-0.139-0.313-0.209-0.664-0.209-1.051c0-0.506,0.082-0.974,0.25-1.399c0.166-0.427,0.502-0.772,1.01-1.04
			c0.268-0.146,0.576-0.257,0.93-0.33s0.717-0.13,1.09-0.17c0.428-0.053,0.842-0.084,1.24-0.09c0.4-0.007,0.78-0.01,1.141-0.01
			V10.02c0-0.025,0-0.062,0-0.109c0-0.048-0.006-0.083-0.02-0.11c-0.027-0.426-0.164-0.736-0.41-0.93
			c-0.248-0.193-0.604-0.311-1.07-0.351c-0.239-0.025-0.514-0.025-0.819,0c-0.334,0.027-0.699,0.07-1.101,0.13
			c-0.4,0.061-0.768,0.124-1.1,0.19c-0.066,0.014-0.127,0.027-0.182,0.04c-0.053,0.014-0.1,0.027-0.139,0.04L122.307,7.721z
			 M123.447,13.101c-0.307,0.174-0.493,0.4-0.561,0.681c-0.066,0.279-0.101,0.554-0.101,0.819c0,0.199,0.036,0.387,0.109,0.562
			c0.074,0.173,0.17,0.325,0.291,0.459c0.119,0.134,0.26,0.244,0.42,0.33c0.16,0.088,0.326,0.137,0.5,0.149h0.199
			c0.561,0,1.066-0.053,1.52-0.16c0.453-0.105,0.914-0.312,1.381-0.62v-2.699c-0.307-0.014-0.637-0.014-0.99,0
			s-0.735,0.041-1.149,0.08c-0.319,0.041-0.623,0.09-0.91,0.149C123.87,12.912,123.633,12.995,123.447,13.101z M131.066,17.001v-14
			h1.201v14H131.066z M134.907,8.961c0.2-0.546,0.576-0.94,1.131-1.18c0.553-0.24,1.184-0.36,1.889-0.36
			c0.548,0,0.99,0.01,1.33,0.03c0.341,0.02,0.67,0.057,0.99,0.109l-0.06,1.181c-0.041-0.014-0.091-0.027-0.149-0.04
			c-0.062-0.014-0.117-0.027-0.17-0.04c-0.228-0.027-0.472-0.051-0.73-0.07c-0.26-0.021-0.523-0.037-0.79-0.05
			c-0.308-0.026-0.573-0.021-0.8,0.02c-0.348,0.027-0.67,0.117-0.971,0.271c-0.3,0.152-0.482,0.377-0.55,0.67
			c-0.026,0.133-0.032,0.232-0.021,0.3c0.025,0.307,0.123,0.546,0.289,0.72s0.363,0.313,0.591,0.42l2.221,1.32
			c0.252,0.146,0.489,0.297,0.709,0.449c0.222,0.154,0.407,0.324,0.562,0.511c0.151,0.188,0.272,0.403,0.358,0.649
			c0.087,0.247,0.132,0.544,0.132,0.891c0,0.439-0.099,0.812-0.291,1.119c-0.193,0.308-0.453,0.558-0.779,0.75
			c-0.326,0.193-0.703,0.334-1.131,0.42c-0.426,0.088-0.867,0.131-1.319,0.131c-0.134,0-0.298,0-0.489,0
			c-0.193,0-0.395-0.004-0.602-0.01c-0.207-0.008-0.412-0.021-0.619-0.041c-0.207-0.021-0.391-0.043-0.551-0.069l0.061-1.2
			c0.041,0.015,0.09,0.023,0.15,0.03c0.06,0.007,0.117,0.018,0.17,0.03c0.213,0.026,0.437,0.05,0.67,0.07
			c0.232,0.02,0.463,0.035,0.689,0.049c0.387,0.026,0.733,0.026,1.041,0c0.426-0.025,0.809-0.126,1.149-0.299
			c0.34-0.175,0.528-0.468,0.569-0.882c0.013-0.053,0.021-0.127,0.021-0.22c-0.015-0.173-0.047-0.323-0.101-0.45
			c-0.055-0.127-0.127-0.235-0.221-0.33c-0.094-0.093-0.199-0.176-0.32-0.25c-0.119-0.071-0.254-0.155-0.399-0.25
			c-0.026,0-0.06-0.02-0.101-0.061l-2.02-1.18c-0.16-0.094-0.326-0.196-0.5-0.311c-0.174-0.113-0.338-0.243-0.49-0.39
			c-0.154-0.146-0.287-0.316-0.399-0.51c-0.113-0.194-0.188-0.432-0.229-0.711C134.747,9.761,134.773,9.348,134.907,8.961z"/>
	</g>
</g>
<g id="Black" display="none">
	<g display="inline">
		<path d="M9.12,0.88c1.253,0,2.433,0.24,3.54,0.72c1.106,0.48,2.07,1.13,2.89,1.95c0.82,0.82,1.47,1.784,1.95,2.89
			c0.48,1.107,0.72,2.287,0.72,3.54c0,1.269-0.24,2.453-0.72,3.562c-0.48,1.105-1.13,2.068-1.95,2.89
			c-0.82,0.819-1.783,1.47-2.89,1.95c-1.107,0.479-2.287,0.72-3.54,0.72c-1.267,0-2.454-0.24-3.56-0.72
			c-1.107-0.48-2.07-1.131-2.89-1.95c-0.82-0.82-1.47-1.783-1.95-2.89C0.24,12.433,0,11.248,0,9.98c0-1.253,0.24-2.433,0.72-3.54
			C1.2,5.333,1.85,4.37,2.67,3.55C3.49,2.73,4.453,2.08,5.56,1.6C6.667,1.12,7.853,0.88,9.12,0.88z M10.8,8.96
			c0.453-0.268,0.823-0.644,1.11-1.13c0.287-0.487,0.41-1.077,0.37-1.771c-0.027-0.413-0.137-0.76-0.33-1.04
			c-0.194-0.279-0.434-0.503-0.72-0.67C10.943,4.184,10.626,4.067,10.28,4C9.933,3.934,9.6,3.9,9.28,3.9
			c-0.507,0-0.96,0.027-1.36,0.08c-0.4,0.054-0.833,0.133-1.3,0.24l0.2,1.6c0.84-0.199,1.7-0.3,2.58-0.3
			c0.16,0,0.336,0.021,0.53,0.061c0.193,0.04,0.336,0.106,0.43,0.2c0.107,0.094,0.18,0.224,0.22,0.39
			c0.04,0.167,0.053,0.337,0.04,0.51c-0.014,0.173-0.054,0.337-0.12,0.49c-0.067,0.153-0.147,0.27-0.24,0.35
			C9.94,7.76,9.65,7.95,9.39,8.09C9.13,8.23,8.907,8.407,8.72,8.62C8.493,8.887,8.35,9.164,8.29,9.45
			C8.23,9.736,8.2,10.053,8.2,10.4v0.96c0,0.188,0.006,0.381,0.02,0.58h1.7v-0.3c0-0.12,0.003-0.28,0.01-0.479
			c0.006-0.199,0.01-0.459,0.01-0.779c0-0.307,0.066-0.574,0.2-0.8C10.273,9.354,10.493,9.147,10.8,8.96z M10.16,13.08H7.94v2.22
			h2.22V13.08z M35.32,0.8c1.253,0,2.437,0.24,3.55,0.72c1.113,0.48,2.08,1.133,2.9,1.96s1.47,1.793,1.95,2.9
			c0.48,1.106,0.72,2.287,0.72,3.54s-0.24,2.433-0.72,3.541c-0.48,1.105-1.13,2.069-1.95,2.89c-0.82,0.819-1.787,1.47-2.9,1.95
			c-1.114,0.479-2.297,0.72-3.55,0.72c-1.253,0-2.433-0.239-3.54-0.72c-1.106-0.48-2.07-1.131-2.89-1.95
			c-0.82-0.819-1.47-1.783-1.95-2.89c-0.48-1.107-0.72-2.287-0.72-3.541c0-1.253,0.24-2.434,0.72-3.54s1.13-2.073,1.95-2.9
			C29.71,2.653,30.673,2,31.78,1.52C32.887,1.04,34.066,0.8,35.32,0.8z M36.5,10.08v0.02l4.58-1.24L40.5,7.1l-4.42,1.7l0.18-4.32
			h-1.82l0.14,4.301V8.8l-4.42-1.7l-0.58,1.76l4.58,1.24l0.02,0.061l-2.96,3.68l1.5,1.101l2.58-3.96h0.06l2.6,3.96l1.48-1.101
			l-2.96-3.68L36.5,10.08z M61.26,0.9c1.253,0,2.434,0.24,3.54,0.721c1.106,0.479,2.07,1.13,2.891,1.949
			c0.819,0.82,1.47,1.784,1.949,2.891c0.48,1.106,0.72,2.287,0.72,3.54c0,1.267-0.24,2.454-0.721,3.56
			c-0.479,1.107-1.13,2.07-1.949,2.892c-0.82,0.818-1.784,1.469-2.891,1.948c-1.107,0.48-2.287,0.722-3.54,0.722
			c-1.267,0-2.453-0.24-3.56-0.722c-1.107-0.479-2.07-1.13-2.89-1.948c-0.82-0.82-1.47-1.783-1.95-2.892
			c-0.48-1.105-0.72-2.293-0.72-3.56c0-1.253,0.24-2.434,0.72-3.54s1.13-2.07,1.95-2.891c0.82-0.819,1.783-1.47,2.89-1.949
			C58.807,1.14,59.993,0.9,61.26,0.9z M60.16,4.06l0.16,7.84h1.84l0.14-7.84H60.16z M62.36,13.1h-2.2v2.22h2.2V13.1z"/>
	</g>
	<g display="inline">
		<path d="M88.586,4.801c0.228-0.693,0.678-1.19,1.352-1.49c0.672-0.3,1.469-0.442,2.389-0.43c0.174,0,0.387,0,0.641,0
			c0.255,0,0.515,0.007,0.781,0.02c0.267,0.015,0.535,0.027,0.81,0.04c0.272,0.015,0.522,0.034,0.75,0.061l-0.08,1.28
			c-0.054,0-0.108-0.007-0.17-0.021c-0.06-0.013-0.123-0.02-0.188-0.02c-0.334-0.04-0.681-0.073-1.041-0.101
			c-0.359-0.026-0.699-0.047-1.021-0.06c-0.187,0-0.363,0-0.529,0c-0.168,0-0.329,0.013-0.489,0.04
			c-0.269,0.026-0.511,0.072-0.73,0.14c-0.221,0.067-0.424,0.154-0.609,0.26c-0.4,0.24-0.641,0.58-0.721,1.021
			c-0.014,0.066-0.02,0.14-0.02,0.22s0,0.16,0,0.24c0.025,0.52,0.143,0.942,0.35,1.27s0.463,0.604,0.77,0.83
			c0.014,0.014,0.033,0.03,0.062,0.05c0.028,0.021,0.047,0.037,0.062,0.051l3.039,2.199c0.319,0.229,0.6,0.44,0.84,0.641
			c0.239,0.201,0.45,0.41,0.631,0.631c0.18,0.22,0.322,0.459,0.43,0.72c0.107,0.26,0.18,0.563,0.221,0.909
			c0.039,0.294,0.053,0.594,0.039,0.9c-0.014,0.306-0.066,0.594-0.16,0.859c-0.253,0.733-0.77,1.271-1.549,1.61
			c-0.781,0.34-1.684,0.51-2.711,0.51c-0.188,0-0.41-0.004-0.67-0.01c-0.26-0.008-0.537-0.019-0.83-0.03
			c-0.293-0.014-0.583-0.034-0.869-0.06c-0.287-0.027-0.544-0.056-0.771-0.08l0.08-1.301c0.055,0.014,0.11,0.022,0.17,0.029
			c0.061,0.007,0.117,0.018,0.17,0.03c0.388,0.053,0.801,0.097,1.24,0.13c0.44,0.033,0.834,0.058,1.181,0.069
			c0.134,0.014,0.261,0.018,0.38,0.011c0.12-0.007,0.24-0.011,0.359-0.011c0.399-0.025,0.783-0.086,1.149-0.181
			c0.367-0.093,0.685-0.231,0.951-0.42c0.347-0.239,0.546-0.612,0.601-1.118v-0.342c-0.015-0.307-0.052-0.565-0.111-0.779
			c-0.059-0.213-0.148-0.406-0.271-0.58c-0.118-0.173-0.272-0.336-0.459-0.49c-0.188-0.152-0.407-0.322-0.659-0.51l-3.041-2.181
			c-0.213-0.146-0.424-0.31-0.629-0.489c-0.207-0.181-0.398-0.384-0.57-0.61c-0.174-0.227-0.32-0.486-0.439-0.78
			c-0.121-0.293-0.201-0.633-0.24-1.02C88.381,5.861,88.426,5.308,88.586,4.801z M98.247,17.001v-9.38h1.26v9.38H98.247z
			 M102.307,11.082c0-0.682,0.087-1.254,0.26-1.722c0.174-0.466,0.414-0.843,0.721-1.13c0.308-0.287,0.67-0.493,1.09-0.62
			c0.42-0.126,0.877-0.189,1.371-0.189c0.492,0,0.933,0.06,1.318,0.18c0.146,0.053,0.327,0.083,0.541,0.09
			c0.213,0.008,0.434,0.011,0.66,0.011h0.439c0.278-0.014,0.537-0.037,0.77-0.07s0.471-0.077,0.711-0.13l0.061,1.12
			c-0.026,0.013-0.067,0.022-0.121,0.029c-0.053,0.008-0.112,0.018-0.18,0.03c-0.188,0.027-0.377,0.053-0.57,0.08
			c-0.192,0.027-0.369,0.04-0.529,0.04c-0.026,0-0.061,0.003-0.1,0.01c-0.041,0.007-0.074,0.01-0.102,0.01h-0.1
			c-0.027-0.013-0.029-0.003-0.01,0.03c0.019,0.033,0.043,0.063,0.069,0.09c0.039,0.055,0.08,0.101,0.119,0.141
			c0.146,0.253,0.265,0.547,0.351,0.88c0.088,0.333,0.131,0.713,0.131,1.14c0,0.653-0.08,1.207-0.24,1.66s-0.383,0.826-0.67,1.119
			c-0.287,0.294-0.627,0.514-1.021,0.66c-0.396,0.146-0.817,0.228-1.271,0.24c-0.08,0-0.164,0-0.25,0
			c-0.088,0-0.17-0.007-0.25-0.021c-0.106,0-0.211-0.007-0.311-0.02c-0.101-0.015-0.197-0.027-0.291-0.041
			c-0.025,0-0.057-0.007-0.09-0.021s-0.062-0.02-0.09-0.02l-0.6,0.738c-0.107,0.135-0.188,0.25-0.24,0.352
			c-0.053,0.1-0.073,0.209-0.061,0.33c0.053,0.173,0.2,0.266,0.44,0.278c0.012,0,0.032,0.004,0.06,0.011
			c0.026,0.008,0.047,0.01,0.061,0.01h2.82h0.539c0.826,0.055,1.414,0.297,1.76,0.729c0.348,0.434,0.527,0.95,0.541,1.552v0.18
			c0,0.426-0.08,0.797-0.24,1.109s-0.348,0.569-0.561,0.771c-0.468,0.453-1.039,0.739-1.72,0.86c-0.681,0.119-1.381,0.18-2.101,0.18
			c-0.387,0-0.813-0.033-1.28-0.1c-0.467-0.067-0.854-0.215-1.16-0.44c-0.253-0.187-0.459-0.424-0.618-0.71
			c-0.16-0.287-0.248-0.623-0.261-1.01v-0.26c0.024-0.349,0.146-0.691,0.358-1.031c0.214-0.34,0.453-0.623,0.722-0.851v-0.02
			c0.024-0.027,0.024-0.08,0-0.16c-0.334-0.134-0.547-0.406-0.642-0.82c-0.014-0.065-0.02-0.13-0.02-0.188c0-0.062,0-0.123,0-0.19
			c0.025-0.146,0.072-0.293,0.141-0.439c0.065-0.146,0.172-0.312,0.318-0.5l0.602-0.721l0.021-0.021
			c-0.026-0.012-0.034-0.032-0.021-0.059c0.013-0.027,0.006-0.048-0.021-0.062C102.727,13.541,102.307,12.507,102.307,11.082z
			 M107.426,17.421h-2.68c-0.347,0.227-0.66,0.492-0.939,0.8c-0.279,0.306-0.42,0.64-0.42,1c0,0.507,0.166,0.88,0.5,1.12
			c0.188,0.133,0.447,0.22,0.779,0.26c0.334,0.04,0.627,0.062,0.881,0.062c0.427,0,0.893-0.034,1.399-0.102
			c0.507-0.066,0.939-0.232,1.3-0.5c0.213-0.146,0.36-0.333,0.44-0.56c0.08-0.229,0.119-0.494,0.119-0.801
			c0-0.119-0.021-0.253-0.06-0.4c-0.041-0.146-0.115-0.286-0.221-0.42c-0.107-0.133-0.248-0.242-0.42-0.33
			C107.934,17.464,107.708,17.421,107.426,17.421z M105.747,8.521c-1.479,0-2.22,0.86-2.22,2.58c0,1.707,0.74,2.562,2.22,2.562
			c1.494,0,2.239-0.854,2.239-2.562C107.986,9.381,107.241,8.521,105.747,8.521z M119.426,16.981h-1.299v-7.06
			c0-0.293-0.055-0.53-0.16-0.71c-0.107-0.18-0.24-0.32-0.4-0.42c-0.16-0.101-0.33-0.17-0.51-0.21s-0.35-0.061-0.51-0.061
			c-0.601,0-1.18,0.061-1.74,0.181c-0.561,0.119-1.053,0.333-1.48,0.64v7.64h-1.299V7.621h1.02l0.142,0.6h0.021
			c0.707-0.36,1.34-0.583,1.899-0.67c0.56-0.086,1.101-0.13,1.619-0.13c0.308,0,0.616,0.04,0.931,0.12
			c0.313,0.08,0.598,0.213,0.85,0.399c0.254,0.188,0.465,0.428,0.631,0.721s0.264,0.652,0.29,1.08v7.239H119.426z M122.307,7.721
			c0.52-0.106,1.014-0.183,1.48-0.229c0.465-0.048,1-0.07,1.6-0.07c0.881,0,1.604,0.173,2.17,0.52c0.566,0.348,0.85,0.94,0.85,1.78
			v7.28h-0.859l-0.159-0.621c-0.015,0.014-0.029,0.022-0.05,0.031c-0.021,0.006-0.045,0.022-0.069,0.049
			c-0.041,0.026-0.074,0.055-0.101,0.08c-0.521,0.294-1.021,0.477-1.5,0.551c-0.479,0.072-1.008,0.109-1.58,0.109
			c-0.319,0-0.635-0.062-0.94-0.189s-0.58-0.303-0.819-0.53c-0.24-0.227-0.431-0.497-0.57-0.81
			c-0.139-0.313-0.209-0.664-0.209-1.051c0-0.506,0.082-0.974,0.25-1.399c0.166-0.427,0.502-0.772,1.01-1.04
			c0.268-0.146,0.576-0.257,0.93-0.33s0.717-0.13,1.09-0.17c0.428-0.053,0.842-0.084,1.24-0.09c0.4-0.007,0.78-0.01,1.141-0.01
			V10.02c0-0.025,0-0.062,0-0.109c0-0.048-0.006-0.083-0.02-0.11c-0.027-0.426-0.164-0.736-0.41-0.93
			c-0.248-0.193-0.604-0.311-1.07-0.351c-0.239-0.025-0.514-0.025-0.819,0c-0.334,0.027-0.699,0.07-1.101,0.13
			c-0.4,0.061-0.768,0.124-1.1,0.19c-0.066,0.014-0.127,0.027-0.182,0.04c-0.053,0.014-0.1,0.027-0.139,0.04L122.307,7.721z
			 M123.447,13.101c-0.307,0.174-0.493,0.4-0.561,0.681c-0.066,0.279-0.101,0.554-0.101,0.819c0,0.199,0.036,0.387,0.109,0.562
			c0.074,0.173,0.17,0.325,0.291,0.459c0.119,0.134,0.26,0.244,0.42,0.33c0.16,0.088,0.326,0.137,0.5,0.149h0.199
			c0.561,0,1.066-0.053,1.52-0.16c0.453-0.105,0.914-0.312,1.381-0.62v-2.699c-0.307-0.014-0.637-0.014-0.99,0
			s-0.735,0.041-1.149,0.08c-0.319,0.041-0.623,0.09-0.91,0.149C123.87,12.912,123.633,12.995,123.447,13.101z M131.066,17.001v-14
			h1.201v14H131.066z M134.907,8.961c0.2-0.546,0.576-0.94,1.131-1.18c0.553-0.24,1.184-0.36,1.889-0.36
			c0.548,0,0.99,0.01,1.33,0.03c0.341,0.02,0.67,0.057,0.99,0.109l-0.06,1.181c-0.041-0.014-0.091-0.027-0.149-0.04
			c-0.062-0.014-0.117-0.027-0.17-0.04c-0.228-0.027-0.472-0.051-0.73-0.07c-0.26-0.021-0.523-0.037-0.79-0.05
			c-0.308-0.026-0.573-0.021-0.8,0.02c-0.348,0.027-0.67,0.117-0.971,0.271c-0.3,0.152-0.482,0.377-0.55,0.67
			c-0.026,0.133-0.032,0.232-0.021,0.3c0.025,0.307,0.123,0.546,0.289,0.72s0.363,0.313,0.591,0.42l2.221,1.32
			c0.252,0.146,0.489,0.297,0.709,0.449c0.222,0.154,0.407,0.324,0.562,0.511c0.151,0.188,0.272,0.403,0.358,0.649
			c0.087,0.247,0.132,0.544,0.132,0.891c0,0.439-0.099,0.812-0.291,1.119c-0.193,0.308-0.453,0.558-0.779,0.75
			c-0.326,0.193-0.703,0.334-1.131,0.42c-0.426,0.088-0.867,0.131-1.319,0.131c-0.134,0-0.298,0-0.489,0
			c-0.193,0-0.395-0.004-0.602-0.01c-0.207-0.008-0.412-0.021-0.619-0.041c-0.207-0.021-0.391-0.043-0.551-0.069l0.061-1.2
			c0.041,0.015,0.09,0.023,0.15,0.03c0.06,0.007,0.117,0.018,0.17,0.03c0.213,0.026,0.437,0.05,0.67,0.07
			c0.232,0.02,0.463,0.035,0.689,0.049c0.387,0.026,0.733,0.026,1.041,0c0.426-0.025,0.809-0.126,1.149-0.299
			c0.34-0.175,0.528-0.468,0.569-0.882c0.013-0.053,0.021-0.127,0.021-0.22c-0.015-0.173-0.047-0.323-0.101-0.45
			c-0.055-0.127-0.127-0.235-0.221-0.33c-0.094-0.093-0.199-0.176-0.32-0.25c-0.119-0.071-0.254-0.155-0.399-0.25
			c-0.026,0-0.06-0.02-0.101-0.061l-2.02-1.18c-0.16-0.094-0.326-0.196-0.5-0.311c-0.174-0.113-0.338-0.243-0.49-0.39
			c-0.154-0.146-0.287-0.316-0.399-0.51c-0.113-0.194-0.188-0.432-0.229-0.711C134.747,9.761,134.773,9.348,134.907,8.961z"/>
	</g>
</g>
<g id="Grey_x5F_PMS" display="none">
	<g display="inline">
		<path fill="#606C7C" d="M9.12,0.88c1.253,0,2.433,0.24,3.54,0.72c1.106,0.48,2.07,1.13,2.89,1.95c0.82,0.82,1.47,1.784,1.95,2.89
			c0.48,1.107,0.72,2.287,0.72,3.54c0,1.269-0.24,2.453-0.72,3.562c-0.48,1.105-1.13,2.068-1.95,2.89
			c-0.82,0.819-1.783,1.47-2.89,1.95c-1.107,0.479-2.287,0.72-3.54,0.72c-1.267,0-2.454-0.24-3.56-0.72
			c-1.107-0.48-2.07-1.131-2.89-1.95c-0.82-0.82-1.47-1.783-1.95-2.89C0.24,12.433,0,11.248,0,9.98c0-1.253,0.24-2.433,0.72-3.54
			C1.2,5.333,1.85,4.37,2.67,3.55C3.49,2.73,4.453,2.08,5.56,1.6C6.667,1.12,7.853,0.88,9.12,0.88z M10.8,8.96
			c0.453-0.268,0.823-0.644,1.11-1.13c0.287-0.487,0.41-1.077,0.37-1.771c-0.027-0.413-0.137-0.76-0.33-1.04
			c-0.194-0.279-0.434-0.503-0.72-0.67C10.943,4.184,10.626,4.067,10.28,4C9.933,3.934,9.6,3.9,9.28,3.9
			c-0.507,0-0.96,0.027-1.36,0.08c-0.4,0.054-0.833,0.133-1.3,0.24l0.2,1.6c0.84-0.199,1.7-0.3,2.58-0.3
			c0.16,0,0.336,0.021,0.53,0.061c0.193,0.04,0.336,0.106,0.43,0.2c0.107,0.094,0.18,0.224,0.22,0.39
			c0.04,0.167,0.053,0.337,0.04,0.51c-0.014,0.173-0.054,0.337-0.12,0.49c-0.067,0.153-0.147,0.27-0.24,0.35
			C9.94,7.76,9.65,7.95,9.39,8.09C9.13,8.23,8.907,8.407,8.72,8.62C8.493,8.887,8.35,9.164,8.29,9.45
			C8.23,9.736,8.2,10.053,8.2,10.4v0.96c0,0.188,0.006,0.381,0.02,0.58h1.7v-0.3c0-0.12,0.003-0.28,0.01-0.479
			c0.006-0.199,0.01-0.459,0.01-0.779c0-0.307,0.066-0.574,0.2-0.8C10.273,9.354,10.493,9.147,10.8,8.96z M10.16,13.08H7.94v2.22
			h2.22V13.08z M35.32,0.8c1.253,0,2.437,0.24,3.55,0.72c1.113,0.48,2.08,1.133,2.9,1.96s1.47,1.793,1.95,2.9
			c0.48,1.106,0.72,2.287,0.72,3.54s-0.24,2.433-0.72,3.541c-0.48,1.105-1.13,2.069-1.95,2.89c-0.82,0.819-1.787,1.47-2.9,1.95
			c-1.114,0.479-2.297,0.72-3.55,0.72c-1.253,0-2.433-0.239-3.54-0.72c-1.106-0.48-2.07-1.131-2.89-1.95
			c-0.82-0.819-1.47-1.783-1.95-2.89c-0.48-1.107-0.72-2.287-0.72-3.541c0-1.253,0.24-2.434,0.72-3.54s1.13-2.073,1.95-2.9
			C29.71,2.653,30.673,2,31.78,1.52C32.887,1.04,34.066,0.8,35.32,0.8z M36.5,10.08v0.02l4.58-1.24L40.5,7.1l-4.42,1.7l0.18-4.32
			h-1.82l0.14,4.301V8.8l-4.42-1.7l-0.58,1.76l4.58,1.24l0.02,0.061l-2.96,3.68l1.5,1.101l2.58-3.96h0.06l2.6,3.96l1.48-1.101
			l-2.96-3.68L36.5,10.08z M61.26,0.9c1.253,0,2.434,0.24,3.54,0.721c1.106,0.479,2.07,1.13,2.891,1.949
			c0.819,0.82,1.47,1.784,1.949,2.891c0.48,1.106,0.72,2.287,0.72,3.54c0,1.267-0.24,2.454-0.721,3.56
			c-0.479,1.107-1.13,2.07-1.949,2.892c-0.82,0.818-1.784,1.469-2.891,1.948c-1.107,0.48-2.287,0.722-3.54,0.722
			c-1.267,0-2.453-0.24-3.56-0.722c-1.107-0.479-2.07-1.13-2.89-1.948c-0.82-0.82-1.47-1.783-1.95-2.892
			c-0.48-1.105-0.72-2.293-0.72-3.56c0-1.253,0.24-2.434,0.72-3.54s1.13-2.07,1.95-2.891c0.82-0.819,1.783-1.47,2.89-1.949
			C58.807,1.14,59.993,0.9,61.26,0.9z M60.16,4.06l0.16,7.84h1.84l0.14-7.84H60.16z M62.36,13.1h-2.2v2.22h2.2V13.1z"/>
	</g>
	<g display="inline">
		<path fill="#606C7C" d="M88.586,4.801c0.228-0.693,0.678-1.19,1.352-1.49c0.672-0.3,1.469-0.442,2.389-0.43
			c0.174,0,0.387,0,0.641,0c0.255,0,0.515,0.007,0.781,0.02c0.267,0.015,0.535,0.027,0.81,0.04c0.272,0.015,0.522,0.034,0.75,0.061
			l-0.08,1.28c-0.054,0-0.108-0.007-0.17-0.021c-0.06-0.013-0.123-0.02-0.188-0.02c-0.334-0.04-0.681-0.073-1.041-0.101
			c-0.359-0.026-0.699-0.047-1.021-0.06c-0.187,0-0.363,0-0.529,0c-0.168,0-0.329,0.013-0.489,0.04
			c-0.269,0.026-0.511,0.072-0.73,0.14c-0.221,0.067-0.424,0.154-0.609,0.26c-0.4,0.24-0.641,0.58-0.721,1.021
			c-0.014,0.066-0.02,0.14-0.02,0.22s0,0.16,0,0.24c0.025,0.52,0.143,0.942,0.35,1.27s0.463,0.604,0.77,0.83
			c0.014,0.014,0.033,0.03,0.062,0.05c0.028,0.021,0.047,0.037,0.062,0.051l3.039,2.199c0.319,0.229,0.6,0.44,0.84,0.641
			c0.239,0.201,0.45,0.41,0.631,0.631c0.18,0.22,0.322,0.459,0.43,0.72c0.107,0.26,0.18,0.563,0.221,0.909
			c0.039,0.294,0.053,0.594,0.039,0.9c-0.014,0.306-0.066,0.594-0.16,0.859c-0.253,0.733-0.77,1.271-1.549,1.61
			c-0.781,0.34-1.684,0.51-2.711,0.51c-0.188,0-0.41-0.004-0.67-0.01c-0.26-0.008-0.537-0.019-0.83-0.03
			c-0.293-0.014-0.583-0.034-0.869-0.06c-0.287-0.027-0.544-0.056-0.771-0.08l0.08-1.301c0.055,0.014,0.11,0.022,0.17,0.029
			c0.061,0.007,0.117,0.018,0.17,0.03c0.388,0.053,0.801,0.097,1.24,0.13c0.44,0.033,0.834,0.058,1.181,0.069
			c0.134,0.014,0.261,0.018,0.38,0.011c0.12-0.007,0.24-0.011,0.359-0.011c0.399-0.025,0.783-0.086,1.149-0.181
			c0.367-0.093,0.685-0.231,0.951-0.42c0.347-0.239,0.546-0.612,0.601-1.118v-0.342c-0.015-0.307-0.052-0.565-0.111-0.779
			c-0.059-0.213-0.148-0.406-0.271-0.58c-0.118-0.173-0.272-0.336-0.459-0.49c-0.188-0.152-0.407-0.322-0.659-0.51l-3.041-2.181
			c-0.213-0.146-0.424-0.31-0.629-0.489c-0.207-0.181-0.398-0.384-0.57-0.61c-0.174-0.227-0.32-0.486-0.439-0.78
			c-0.121-0.293-0.201-0.633-0.24-1.02C88.381,5.861,88.426,5.308,88.586,4.801z M98.247,17.001v-9.38h1.26v9.38H98.247z
			 M102.307,11.082c0-0.682,0.087-1.254,0.26-1.722c0.174-0.466,0.414-0.843,0.721-1.13c0.308-0.287,0.67-0.493,1.09-0.62
			c0.42-0.126,0.877-0.189,1.371-0.189c0.492,0,0.933,0.06,1.318,0.18c0.146,0.053,0.327,0.083,0.541,0.09
			c0.213,0.008,0.434,0.011,0.66,0.011h0.439c0.278-0.014,0.537-0.037,0.77-0.07s0.471-0.077,0.711-0.13l0.061,1.12
			c-0.026,0.013-0.067,0.022-0.121,0.029c-0.053,0.008-0.112,0.018-0.18,0.03c-0.188,0.027-0.377,0.053-0.57,0.08
			c-0.192,0.027-0.369,0.04-0.529,0.04c-0.026,0-0.061,0.003-0.1,0.01c-0.041,0.007-0.074,0.01-0.102,0.01h-0.1
			c-0.027-0.013-0.029-0.003-0.01,0.03c0.019,0.033,0.043,0.063,0.069,0.09c0.039,0.055,0.08,0.101,0.119,0.141
			c0.146,0.253,0.265,0.547,0.351,0.88c0.088,0.333,0.131,0.713,0.131,1.14c0,0.653-0.08,1.207-0.24,1.66s-0.383,0.826-0.67,1.119
			c-0.287,0.294-0.627,0.514-1.021,0.66c-0.396,0.146-0.817,0.228-1.271,0.24c-0.08,0-0.164,0-0.25,0
			c-0.088,0-0.17-0.007-0.25-0.021c-0.106,0-0.211-0.007-0.311-0.02c-0.101-0.015-0.197-0.027-0.291-0.041
			c-0.025,0-0.057-0.007-0.09-0.021s-0.062-0.02-0.09-0.02l-0.6,0.738c-0.107,0.135-0.188,0.25-0.24,0.352
			c-0.053,0.1-0.073,0.209-0.061,0.33c0.053,0.173,0.2,0.266,0.44,0.278c0.012,0,0.032,0.004,0.06,0.011
			c0.026,0.008,0.047,0.01,0.061,0.01h2.82h0.539c0.826,0.055,1.414,0.297,1.76,0.729c0.348,0.434,0.527,0.95,0.541,1.552v0.18
			c0,0.426-0.08,0.797-0.24,1.109s-0.348,0.569-0.561,0.771c-0.468,0.453-1.039,0.739-1.72,0.86c-0.681,0.119-1.381,0.18-2.101,0.18
			c-0.387,0-0.813-0.033-1.28-0.1c-0.467-0.067-0.854-0.215-1.16-0.44c-0.253-0.187-0.459-0.424-0.618-0.71
			c-0.16-0.287-0.248-0.623-0.261-1.01v-0.26c0.024-0.349,0.146-0.691,0.358-1.031c0.214-0.34,0.453-0.623,0.722-0.851v-0.02
			c0.024-0.027,0.024-0.08,0-0.16c-0.334-0.134-0.547-0.406-0.642-0.82c-0.014-0.065-0.02-0.13-0.02-0.188c0-0.062,0-0.123,0-0.19
			c0.025-0.146,0.072-0.293,0.141-0.439c0.065-0.146,0.172-0.312,0.318-0.5l0.602-0.721l0.021-0.021
			c-0.026-0.012-0.034-0.032-0.021-0.059c0.013-0.027,0.006-0.048-0.021-0.062C102.727,13.541,102.307,12.507,102.307,11.082z
			 M107.426,17.421h-2.68c-0.347,0.227-0.66,0.492-0.939,0.8c-0.279,0.306-0.42,0.64-0.42,1c0,0.507,0.166,0.88,0.5,1.12
			c0.188,0.133,0.447,0.22,0.779,0.26c0.334,0.04,0.627,0.062,0.881,0.062c0.427,0,0.893-0.034,1.399-0.102
			c0.507-0.066,0.939-0.232,1.3-0.5c0.213-0.146,0.36-0.333,0.44-0.56c0.08-0.229,0.119-0.494,0.119-0.801
			c0-0.119-0.021-0.253-0.06-0.4c-0.041-0.146-0.115-0.286-0.221-0.42c-0.107-0.133-0.248-0.242-0.42-0.33
			C107.934,17.464,107.708,17.421,107.426,17.421z M105.747,8.521c-1.479,0-2.22,0.86-2.22,2.58c0,1.707,0.74,2.562,2.22,2.562
			c1.494,0,2.239-0.854,2.239-2.562C107.986,9.381,107.241,8.521,105.747,8.521z M119.426,16.981h-1.299v-7.06
			c0-0.293-0.055-0.53-0.16-0.71c-0.107-0.18-0.24-0.32-0.4-0.42c-0.16-0.101-0.33-0.17-0.51-0.21s-0.35-0.061-0.51-0.061
			c-0.601,0-1.18,0.061-1.74,0.181c-0.561,0.119-1.053,0.333-1.48,0.64v7.64h-1.299V7.621h1.02l0.142,0.6h0.021
			c0.707-0.36,1.34-0.583,1.899-0.67c0.56-0.086,1.101-0.13,1.619-0.13c0.308,0,0.616,0.04,0.931,0.12
			c0.313,0.08,0.598,0.213,0.85,0.399c0.254,0.188,0.465,0.428,0.631,0.721s0.264,0.652,0.29,1.08v7.239H119.426z M122.307,7.721
			c0.52-0.106,1.014-0.183,1.48-0.229c0.465-0.048,1-0.07,1.6-0.07c0.881,0,1.604,0.173,2.17,0.52c0.566,0.348,0.85,0.94,0.85,1.78
			v7.28h-0.859l-0.159-0.621c-0.015,0.014-0.029,0.022-0.05,0.031c-0.021,0.006-0.045,0.022-0.069,0.049
			c-0.041,0.026-0.074,0.055-0.101,0.08c-0.521,0.294-1.021,0.477-1.5,0.551c-0.479,0.072-1.008,0.109-1.58,0.109
			c-0.319,0-0.635-0.062-0.94-0.189s-0.58-0.303-0.819-0.53c-0.24-0.227-0.431-0.497-0.57-0.81
			c-0.139-0.313-0.209-0.664-0.209-1.051c0-0.506,0.082-0.974,0.25-1.399c0.166-0.427,0.502-0.772,1.01-1.04
			c0.268-0.146,0.576-0.257,0.93-0.33s0.717-0.13,1.09-0.17c0.428-0.053,0.842-0.084,1.24-0.09c0.4-0.007,0.78-0.01,1.141-0.01
			V10.02c0-0.025,0-0.062,0-0.109c0-0.048-0.006-0.083-0.02-0.11c-0.027-0.426-0.164-0.736-0.41-0.93
			c-0.248-0.193-0.604-0.311-1.07-0.351c-0.239-0.025-0.514-0.025-0.819,0c-0.334,0.027-0.699,0.07-1.101,0.13
			c-0.4,0.061-0.768,0.124-1.1,0.19c-0.066,0.014-0.127,0.027-0.182,0.04c-0.053,0.014-0.1,0.027-0.139,0.04L122.307,7.721z
			 M123.447,13.101c-0.307,0.174-0.493,0.4-0.561,0.681c-0.066,0.279-0.101,0.554-0.101,0.819c0,0.199,0.036,0.387,0.109,0.562
			c0.074,0.173,0.17,0.325,0.291,0.459c0.119,0.134,0.26,0.244,0.42,0.33c0.16,0.088,0.326,0.137,0.5,0.149h0.199
			c0.561,0,1.066-0.053,1.52-0.16c0.453-0.105,0.914-0.312,1.381-0.62v-2.699c-0.307-0.014-0.637-0.014-0.99,0
			s-0.735,0.041-1.149,0.08c-0.319,0.041-0.623,0.09-0.91,0.149C123.87,12.912,123.633,12.995,123.447,13.101z M131.066,17.001v-14
			h1.201v14H131.066z M134.907,8.961c0.2-0.546,0.576-0.94,1.131-1.18c0.553-0.24,1.184-0.36,1.889-0.36
			c0.548,0,0.99,0.01,1.33,0.03c0.341,0.02,0.67,0.057,0.99,0.109l-0.06,1.181c-0.041-0.014-0.091-0.027-0.149-0.04
			c-0.062-0.014-0.117-0.027-0.17-0.04c-0.228-0.027-0.472-0.051-0.73-0.07c-0.26-0.021-0.523-0.037-0.79-0.05
			c-0.308-0.026-0.573-0.021-0.8,0.02c-0.348,0.027-0.67,0.117-0.971,0.271c-0.3,0.152-0.482,0.377-0.55,0.67
			c-0.026,0.133-0.032,0.232-0.021,0.3c0.025,0.307,0.123,0.546,0.289,0.72s0.363,0.313,0.591,0.42l2.221,1.32
			c0.252,0.146,0.489,0.297,0.709,0.449c0.222,0.154,0.407,0.324,0.562,0.511c0.151,0.188,0.272,0.403,0.358,0.649
			c0.087,0.247,0.132,0.544,0.132,0.891c0,0.439-0.099,0.812-0.291,1.119c-0.193,0.308-0.453,0.558-0.779,0.75
			c-0.326,0.193-0.703,0.334-1.131,0.42c-0.426,0.088-0.867,0.131-1.319,0.131c-0.134,0-0.298,0-0.489,0
			c-0.193,0-0.395-0.004-0.602-0.01c-0.207-0.008-0.412-0.021-0.619-0.041c-0.207-0.021-0.391-0.043-0.551-0.069l0.061-1.2
			c0.041,0.015,0.09,0.023,0.15,0.03c0.06,0.007,0.117,0.018,0.17,0.03c0.213,0.026,0.437,0.05,0.67,0.07
			c0.232,0.02,0.463,0.035,0.689,0.049c0.387,0.026,0.733,0.026,1.041,0c0.426-0.025,0.809-0.126,1.149-0.299
			c0.34-0.175,0.528-0.468,0.569-0.882c0.013-0.053,0.021-0.127,0.021-0.22c-0.015-0.173-0.047-0.323-0.101-0.45
			c-0.055-0.127-0.127-0.235-0.221-0.33c-0.094-0.093-0.199-0.176-0.32-0.25c-0.119-0.071-0.254-0.155-0.399-0.25
			c-0.026,0-0.06-0.02-0.101-0.061l-2.02-1.18c-0.16-0.094-0.326-0.196-0.5-0.311c-0.174-0.113-0.338-0.243-0.49-0.39
			c-0.154-0.146-0.287-0.316-0.399-0.51c-0.113-0.194-0.188-0.432-0.229-0.711C134.747,9.761,134.773,9.348,134.907,8.961z"/>
	</g>
</g>
<g id="Grey_x5F_CMYK" display="none">
	<g display="inline">
		<path fill="#656D74" d="M9.12,0.88c1.253,0,2.433,0.24,3.54,0.72c1.106,0.48,2.07,1.13,2.89,1.95c0.82,0.82,1.47,1.784,1.95,2.89
			c0.48,1.107,0.72,2.287,0.72,3.54c0,1.269-0.24,2.453-0.72,3.562c-0.48,1.105-1.13,2.068-1.95,2.89
			c-0.82,0.819-1.783,1.47-2.89,1.95c-1.107,0.479-2.287,0.72-3.54,0.72c-1.267,0-2.454-0.24-3.56-0.72
			c-1.107-0.48-2.07-1.131-2.89-1.95c-0.82-0.82-1.47-1.783-1.95-2.89C0.24,12.433,0,11.248,0,9.98c0-1.253,0.24-2.433,0.72-3.54
			C1.2,5.333,1.85,4.37,2.67,3.55C3.49,2.73,4.453,2.08,5.56,1.6C6.667,1.12,7.853,0.88,9.12,0.88z M10.8,8.96
			c0.453-0.268,0.823-0.644,1.11-1.13c0.287-0.487,0.41-1.077,0.37-1.771c-0.027-0.413-0.137-0.76-0.33-1.04
			c-0.194-0.279-0.434-0.503-0.72-0.67C10.943,4.184,10.626,4.067,10.28,4C9.933,3.934,9.6,3.9,9.28,3.9
			c-0.507,0-0.96,0.027-1.36,0.08c-0.4,0.054-0.833,0.133-1.3,0.24l0.2,1.6c0.84-0.199,1.7-0.3,2.58-0.3
			c0.16,0,0.336,0.021,0.53,0.061c0.193,0.04,0.336,0.106,0.43,0.2c0.107,0.094,0.18,0.224,0.22,0.39
			c0.04,0.167,0.053,0.337,0.04,0.51c-0.014,0.173-0.054,0.337-0.12,0.49c-0.067,0.153-0.147,0.27-0.24,0.35
			C9.94,7.76,9.65,7.95,9.39,8.09C9.13,8.23,8.907,8.407,8.72,8.62C8.493,8.887,8.35,9.164,8.29,9.45
			C8.23,9.736,8.2,10.053,8.2,10.4v0.96c0,0.188,0.006,0.381,0.02,0.58h1.7v-0.3c0-0.12,0.003-0.28,0.01-0.479
			c0.006-0.199,0.01-0.459,0.01-0.779c0-0.307,0.066-0.574,0.2-0.8C10.273,9.354,10.493,9.147,10.8,8.96z M10.16,13.08H7.94v2.22
			h2.22V13.08z M35.32,0.8c1.253,0,2.437,0.24,3.55,0.72c1.113,0.48,2.08,1.133,2.9,1.96s1.47,1.793,1.95,2.9
			c0.48,1.106,0.72,2.287,0.72,3.54s-0.24,2.433-0.72,3.541c-0.48,1.105-1.13,2.069-1.95,2.89c-0.82,0.819-1.787,1.47-2.9,1.95
			c-1.114,0.479-2.297,0.72-3.55,0.72c-1.253,0-2.433-0.239-3.54-0.72c-1.106-0.48-2.07-1.131-2.89-1.95
			c-0.82-0.819-1.47-1.783-1.95-2.89c-0.48-1.107-0.72-2.287-0.72-3.541c0-1.253,0.24-2.434,0.72-3.54s1.13-2.073,1.95-2.9
			C29.71,2.653,30.673,2,31.78,1.52C32.887,1.04,34.066,0.8,35.32,0.8z M36.5,10.08v0.02l4.58-1.24L40.5,7.1l-4.42,1.7l0.18-4.32
			h-1.82l0.14,4.301V8.8l-4.42-1.7l-0.58,1.76l4.58,1.24l0.02,0.061l-2.96,3.68l1.5,1.101l2.58-3.96h0.06l2.6,3.96l1.48-1.101
			l-2.96-3.68L36.5,10.08z M61.26,0.9c1.253,0,2.434,0.24,3.54,0.721c1.106,0.479,2.07,1.13,2.891,1.949
			c0.819,0.82,1.47,1.784,1.949,2.891c0.48,1.106,0.72,2.287,0.72,3.54c0,1.267-0.24,2.454-0.721,3.56
			c-0.479,1.107-1.13,2.07-1.949,2.892c-0.82,0.818-1.784,1.469-2.891,1.948c-1.107,0.48-2.287,0.722-3.54,0.722
			c-1.267,0-2.453-0.24-3.56-0.722c-1.107-0.479-2.07-1.13-2.89-1.948c-0.82-0.82-1.47-1.783-1.95-2.892
			c-0.48-1.105-0.72-2.293-0.72-3.56c0-1.253,0.24-2.434,0.72-3.54s1.13-2.07,1.95-2.891c0.82-0.819,1.783-1.47,2.89-1.949
			C58.807,1.14,59.993,0.9,61.26,0.9z M60.16,4.06l0.16,7.84h1.84l0.14-7.84H60.16z M62.36,13.1h-2.2v2.22h2.2V13.1z"/>
	</g>
	<g display="inline">
		<path fill="#656D74" d="M88.586,4.801c0.228-0.693,0.678-1.19,1.352-1.49c0.672-0.3,1.469-0.442,2.389-0.43
			c0.174,0,0.387,0,0.641,0c0.255,0,0.515,0.007,0.781,0.02c0.267,0.015,0.535,0.027,0.81,0.04c0.272,0.015,0.522,0.034,0.75,0.061
			l-0.08,1.28c-0.054,0-0.108-0.007-0.17-0.021c-0.06-0.013-0.123-0.02-0.188-0.02c-0.334-0.04-0.681-0.073-1.041-0.101
			c-0.359-0.026-0.699-0.047-1.021-0.06c-0.187,0-0.363,0-0.529,0c-0.168,0-0.329,0.013-0.489,0.04
			c-0.269,0.026-0.511,0.072-0.73,0.14c-0.221,0.067-0.424,0.154-0.609,0.26c-0.4,0.24-0.641,0.58-0.721,1.021
			c-0.014,0.066-0.02,0.14-0.02,0.22s0,0.16,0,0.24c0.025,0.52,0.143,0.942,0.35,1.27s0.463,0.604,0.77,0.83
			c0.014,0.014,0.033,0.03,0.062,0.05c0.028,0.021,0.047,0.037,0.062,0.051l3.039,2.199c0.319,0.229,0.6,0.44,0.84,0.641
			c0.239,0.201,0.45,0.41,0.631,0.631c0.18,0.22,0.322,0.459,0.43,0.72c0.107,0.26,0.18,0.563,0.221,0.909
			c0.039,0.294,0.053,0.594,0.039,0.9c-0.014,0.306-0.066,0.594-0.16,0.859c-0.253,0.733-0.77,1.271-1.549,1.61
			c-0.781,0.34-1.684,0.51-2.711,0.51c-0.188,0-0.41-0.004-0.67-0.01c-0.26-0.008-0.537-0.019-0.83-0.03
			c-0.293-0.014-0.583-0.034-0.869-0.06c-0.287-0.027-0.544-0.056-0.771-0.08l0.08-1.301c0.055,0.014,0.11,0.022,0.17,0.029
			c0.061,0.007,0.117,0.018,0.17,0.03c0.388,0.053,0.801,0.097,1.24,0.13c0.44,0.033,0.834,0.058,1.181,0.069
			c0.134,0.014,0.261,0.018,0.38,0.011c0.12-0.007,0.24-0.011,0.359-0.011c0.399-0.025,0.783-0.086,1.149-0.181
			c0.367-0.093,0.685-0.231,0.951-0.42c0.347-0.239,0.546-0.612,0.601-1.118v-0.342c-0.015-0.307-0.052-0.565-0.111-0.779
			c-0.059-0.213-0.148-0.406-0.271-0.58c-0.118-0.173-0.272-0.336-0.459-0.49c-0.188-0.152-0.407-0.322-0.659-0.51l-3.041-2.181
			c-0.213-0.146-0.424-0.31-0.629-0.489c-0.207-0.181-0.398-0.384-0.57-0.61c-0.174-0.227-0.32-0.486-0.439-0.78
			c-0.121-0.293-0.201-0.633-0.24-1.02C88.381,5.861,88.426,5.308,88.586,4.801z M98.247,17.001v-9.38h1.26v9.38H98.247z
			 M102.307,11.082c0-0.682,0.087-1.254,0.26-1.722c0.174-0.466,0.414-0.843,0.721-1.13c0.308-0.287,0.67-0.493,1.09-0.62
			c0.42-0.126,0.877-0.189,1.371-0.189c0.492,0,0.933,0.06,1.318,0.18c0.146,0.053,0.327,0.083,0.541,0.09
			c0.213,0.008,0.434,0.011,0.66,0.011h0.439c0.278-0.014,0.537-0.037,0.77-0.07s0.471-0.077,0.711-0.13l0.061,1.12
			c-0.026,0.013-0.067,0.022-0.121,0.029c-0.053,0.008-0.112,0.018-0.18,0.03c-0.188,0.027-0.377,0.053-0.57,0.08
			c-0.192,0.027-0.369,0.04-0.529,0.04c-0.026,0-0.061,0.003-0.1,0.01c-0.041,0.007-0.074,0.01-0.102,0.01h-0.1
			c-0.027-0.013-0.029-0.003-0.01,0.03c0.019,0.033,0.043,0.063,0.069,0.09c0.039,0.055,0.08,0.101,0.119,0.141
			c0.146,0.253,0.265,0.547,0.351,0.88c0.088,0.333,0.131,0.713,0.131,1.14c0,0.653-0.08,1.207-0.24,1.66s-0.383,0.826-0.67,1.119
			c-0.287,0.294-0.627,0.514-1.021,0.66c-0.396,0.146-0.817,0.228-1.271,0.24c-0.08,0-0.164,0-0.25,0
			c-0.088,0-0.17-0.007-0.25-0.021c-0.106,0-0.211-0.007-0.311-0.02c-0.101-0.015-0.197-0.027-0.291-0.041
			c-0.025,0-0.057-0.007-0.09-0.021s-0.062-0.02-0.09-0.02l-0.6,0.738c-0.107,0.135-0.188,0.25-0.24,0.352
			c-0.053,0.1-0.073,0.209-0.061,0.33c0.053,0.173,0.2,0.266,0.44,0.278c0.012,0,0.032,0.004,0.06,0.011
			c0.026,0.008,0.047,0.01,0.061,0.01h2.82h0.539c0.826,0.055,1.414,0.297,1.76,0.729c0.348,0.434,0.527,0.95,0.541,1.552v0.18
			c0,0.426-0.08,0.797-0.24,1.109s-0.348,0.569-0.561,0.771c-0.468,0.453-1.039,0.739-1.72,0.86c-0.681,0.119-1.381,0.18-2.101,0.18
			c-0.387,0-0.813-0.033-1.28-0.1c-0.467-0.067-0.854-0.215-1.16-0.44c-0.253-0.187-0.459-0.424-0.618-0.71
			c-0.16-0.287-0.248-0.623-0.261-1.01v-0.26c0.024-0.349,0.146-0.691,0.358-1.031c0.214-0.34,0.453-0.623,0.722-0.851v-0.02
			c0.024-0.027,0.024-0.08,0-0.16c-0.334-0.134-0.547-0.406-0.642-0.82c-0.014-0.065-0.02-0.13-0.02-0.188c0-0.062,0-0.123,0-0.19
			c0.025-0.146,0.072-0.293,0.141-0.439c0.065-0.146,0.172-0.312,0.318-0.5l0.602-0.721l0.021-0.021
			c-0.026-0.012-0.034-0.032-0.021-0.059c0.013-0.027,0.006-0.048-0.021-0.062C102.727,13.541,102.307,12.507,102.307,11.082z
			 M107.426,17.421h-2.68c-0.347,0.227-0.66,0.492-0.939,0.8c-0.279,0.306-0.42,0.64-0.42,1c0,0.507,0.166,0.88,0.5,1.12
			c0.188,0.133,0.447,0.22,0.779,0.26c0.334,0.04,0.627,0.062,0.881,0.062c0.427,0,0.893-0.034,1.399-0.102
			c0.507-0.066,0.939-0.232,1.3-0.5c0.213-0.146,0.36-0.333,0.44-0.56c0.08-0.229,0.119-0.494,0.119-0.801
			c0-0.119-0.021-0.253-0.06-0.4c-0.041-0.146-0.115-0.286-0.221-0.42c-0.107-0.133-0.248-0.242-0.42-0.33
			C107.934,17.464,107.708,17.421,107.426,17.421z M105.747,8.521c-1.479,0-2.22,0.86-2.22,2.58c0,1.707,0.74,2.562,2.22,2.562
			c1.494,0,2.239-0.854,2.239-2.562C107.986,9.381,107.241,8.521,105.747,8.521z M119.426,16.981h-1.299v-7.06
			c0-0.293-0.055-0.53-0.16-0.71c-0.107-0.18-0.24-0.32-0.4-0.42c-0.16-0.101-0.33-0.17-0.51-0.21s-0.35-0.061-0.51-0.061
			c-0.601,0-1.18,0.061-1.74,0.181c-0.561,0.119-1.053,0.333-1.48,0.64v7.64h-1.299V7.621h1.02l0.142,0.6h0.021
			c0.707-0.36,1.34-0.583,1.899-0.67c0.56-0.086,1.101-0.13,1.619-0.13c0.308,0,0.616,0.04,0.931,0.12
			c0.313,0.08,0.598,0.213,0.85,0.399c0.254,0.188,0.465,0.428,0.631,0.721s0.264,0.652,0.29,1.08v7.239H119.426z M122.307,7.721
			c0.52-0.106,1.014-0.183,1.48-0.229c0.465-0.048,1-0.07,1.6-0.07c0.881,0,1.604,0.173,2.17,0.52c0.566,0.348,0.85,0.94,0.85,1.78
			v7.28h-0.859l-0.159-0.621c-0.015,0.014-0.029,0.022-0.05,0.031c-0.021,0.006-0.045,0.022-0.069,0.049
			c-0.041,0.026-0.074,0.055-0.101,0.08c-0.521,0.294-1.021,0.477-1.5,0.551c-0.479,0.072-1.008,0.109-1.58,0.109
			c-0.319,0-0.635-0.062-0.94-0.189s-0.58-0.303-0.819-0.53c-0.24-0.227-0.431-0.497-0.57-0.81
			c-0.139-0.313-0.209-0.664-0.209-1.051c0-0.506,0.082-0.974,0.25-1.399c0.166-0.427,0.502-0.772,1.01-1.04
			c0.268-0.146,0.576-0.257,0.93-0.33s0.717-0.13,1.09-0.17c0.428-0.053,0.842-0.084,1.24-0.09c0.4-0.007,0.78-0.01,1.141-0.01
			V10.02c0-0.025,0-0.062,0-0.109c0-0.048-0.006-0.083-0.02-0.11c-0.027-0.426-0.164-0.736-0.41-0.93
			c-0.248-0.193-0.604-0.311-1.07-0.351c-0.239-0.025-0.514-0.025-0.819,0c-0.334,0.027-0.699,0.07-1.101,0.13
			c-0.4,0.061-0.768,0.124-1.1,0.19c-0.066,0.014-0.127,0.027-0.182,0.04c-0.053,0.014-0.1,0.027-0.139,0.04L122.307,7.721z
			 M123.447,13.101c-0.307,0.174-0.493,0.4-0.561,0.681c-0.066,0.279-0.101,0.554-0.101,0.819c0,0.199,0.036,0.387,0.109,0.562
			c0.074,0.173,0.17,0.325,0.291,0.459c0.119,0.134,0.26,0.244,0.42,0.33c0.16,0.088,0.326,0.137,0.5,0.149h0.199
			c0.561,0,1.066-0.053,1.52-0.16c0.453-0.105,0.914-0.312,1.381-0.62v-2.699c-0.307-0.014-0.637-0.014-0.99,0
			s-0.735,0.041-1.149,0.08c-0.319,0.041-0.623,0.09-0.91,0.149C123.87,12.912,123.633,12.995,123.447,13.101z M131.066,17.001v-14
			h1.201v14H131.066z M134.907,8.961c0.2-0.546,0.576-0.94,1.131-1.18c0.553-0.24,1.184-0.36,1.889-0.36
			c0.548,0,0.99,0.01,1.33,0.03c0.341,0.02,0.67,0.057,0.99,0.109l-0.06,1.181c-0.041-0.014-0.091-0.027-0.149-0.04
			c-0.062-0.014-0.117-0.027-0.17-0.04c-0.228-0.027-0.472-0.051-0.73-0.07c-0.26-0.021-0.523-0.037-0.79-0.05
			c-0.308-0.026-0.573-0.021-0.8,0.02c-0.348,0.027-0.67,0.117-0.971,0.271c-0.3,0.152-0.482,0.377-0.55,0.67
			c-0.026,0.133-0.032,0.232-0.021,0.3c0.025,0.307,0.123,0.546,0.289,0.72s0.363,0.313,0.591,0.42l2.221,1.32
			c0.252,0.146,0.489,0.297,0.709,0.449c0.222,0.154,0.407,0.324,0.562,0.511c0.151,0.188,0.272,0.403,0.358,0.649
			c0.087,0.247,0.132,0.544,0.132,0.891c0,0.439-0.099,0.812-0.291,1.119c-0.193,0.308-0.453,0.558-0.779,0.75
			c-0.326,0.193-0.703,0.334-1.131,0.42c-0.426,0.088-0.867,0.131-1.319,0.131c-0.134,0-0.298,0-0.489,0
			c-0.193,0-0.395-0.004-0.602-0.01c-0.207-0.008-0.412-0.021-0.619-0.041c-0.207-0.021-0.391-0.043-0.551-0.069l0.061-1.2
			c0.041,0.015,0.09,0.023,0.15,0.03c0.06,0.007,0.117,0.018,0.17,0.03c0.213,0.026,0.437,0.05,0.67,0.07
			c0.232,0.02,0.463,0.035,0.689,0.049c0.387,0.026,0.733,0.026,1.041,0c0.426-0.025,0.809-0.126,1.149-0.299
			c0.34-0.175,0.528-0.468,0.569-0.882c0.013-0.053,0.021-0.127,0.021-0.22c-0.015-0.173-0.047-0.323-0.101-0.45
			c-0.055-0.127-0.127-0.235-0.221-0.33c-0.094-0.093-0.199-0.176-0.32-0.25c-0.119-0.071-0.254-0.155-0.399-0.25
			c-0.026,0-0.06-0.02-0.101-0.061l-2.02-1.18c-0.16-0.094-0.326-0.196-0.5-0.311c-0.174-0.113-0.338-0.243-0.49-0.39
			c-0.154-0.146-0.287-0.316-0.399-0.51c-0.113-0.194-0.188-0.432-0.229-0.711C134.747,9.761,134.773,9.348,134.907,8.961z"/>
	</g>
</g>
<g id="Split_x5F_PMS">
	<g>
		<path fill="#94C947" d="M9.12,0.88c1.253,0,2.433,0.24,3.54,0.72c1.106,0.48,2.07,1.13,2.89,1.95c0.82,0.82,1.47,1.784,1.95,2.89
			c0.48,1.107,0.72,2.287,0.72,3.54c0,1.269-0.24,2.453-0.72,3.562c-0.48,1.105-1.13,2.068-1.95,2.89
			c-0.82,0.819-1.783,1.47-2.89,1.95c-1.107,0.479-2.287,0.72-3.54,0.72c-1.267,0-2.454-0.24-3.56-0.72
			c-1.107-0.48-2.07-1.131-2.89-1.95c-0.82-0.82-1.47-1.783-1.95-2.89C0.24,12.433,0,11.248,0,9.98c0-1.253,0.24-2.433,0.72-3.54
			C1.2,5.333,1.85,4.37,2.67,3.55C3.49,2.73,4.453,2.08,5.56,1.6C6.667,1.12,7.853,0.88,9.12,0.88z M10.8,8.96
			c0.453-0.268,0.823-0.644,1.11-1.13c0.287-0.487,0.41-1.077,0.37-1.771c-0.027-0.413-0.137-0.76-0.33-1.04
			c-0.194-0.279-0.434-0.503-0.72-0.67C10.943,4.184,10.626,4.067,10.28,4C9.933,3.934,9.6,3.9,9.28,3.9
			c-0.507,0-0.96,0.027-1.36,0.08c-0.4,0.054-0.833,0.133-1.3,0.24l0.2,1.6c0.84-0.199,1.7-0.3,2.58-0.3
			c0.16,0,0.336,0.021,0.53,0.061c0.193,0.04,0.336,0.106,0.43,0.2c0.107,0.094,0.18,0.224,0.22,0.39
			c0.04,0.167,0.053,0.337,0.04,0.51c-0.014,0.173-0.054,0.337-0.12,0.49c-0.067,0.153-0.147,0.27-0.24,0.35
			C9.94,7.76,9.65,7.95,9.39,8.09C9.13,8.23,8.907,8.407,8.72,8.62C8.493,8.887,8.35,9.164,8.29,9.45
			C8.23,9.736,8.2,10.053,8.2,10.4v0.96c0,0.188,0.006,0.381,0.02,0.58h1.7v-0.3c0-0.12,0.003-0.28,0.01-0.479
			c0.006-0.199,0.01-0.459,0.01-0.779c0-0.307,0.066-0.574,0.2-0.8C10.273,9.354,10.493,9.147,10.8,8.96z M10.16,13.08H7.94v2.22
			h2.22V13.08z M35.32,0.8c1.253,0,2.437,0.24,3.55,0.72c1.113,0.48,2.08,1.133,2.9,1.96s1.47,1.793,1.95,2.9
			c0.48,1.106,0.72,2.287,0.72,3.54s-0.24,2.433-0.72,3.541c-0.48,1.105-1.13,2.069-1.95,2.89c-0.82,0.819-1.787,1.47-2.9,1.95
			c-1.114,0.479-2.297,0.72-3.55,0.72c-1.253,0-2.433-0.239-3.54-0.72c-1.106-0.48-2.07-1.131-2.89-1.95
			c-0.82-0.819-1.47-1.783-1.95-2.89c-0.48-1.107-0.72-2.287-0.72-3.541c0-1.253,0.24-2.434,0.72-3.54s1.13-2.073,1.95-2.9
			C29.71,2.653,30.673,2,31.78,1.52C32.887,1.04,34.066,0.8,35.32,0.8z M36.5,10.08v0.02l4.58-1.24L40.5,7.1l-4.42,1.7l0.18-4.32
			h-1.82l0.14,4.301V8.8l-4.42-1.7l-0.58,1.76l4.58,1.24l0.02,0.061l-2.96,3.68l1.5,1.101l2.58-3.96h0.06l2.6,3.96l1.48-1.101
			l-2.96-3.68L36.5,10.08z M61.26,0.9c1.253,0,2.434,0.24,3.54,0.721c1.106,0.479,2.07,1.13,2.891,1.949
			c0.819,0.82,1.47,1.784,1.949,2.891c0.48,1.106,0.72,2.287,0.72,3.54c0,1.267-0.24,2.454-0.721,3.56
			c-0.479,1.107-1.13,2.07-1.949,2.892c-0.82,0.818-1.784,1.469-2.891,1.948c-1.107,0.48-2.287,0.722-3.54,0.722
			c-1.267,0-2.453-0.24-3.56-0.722c-1.107-0.479-2.07-1.13-2.89-1.948c-0.82-0.82-1.47-1.783-1.95-2.892
			c-0.48-1.105-0.72-2.293-0.72-3.56c0-1.253,0.24-2.434,0.72-3.54s1.13-2.07,1.95-2.891c0.82-0.819,1.783-1.47,2.89-1.949
			C58.807,1.14,59.993,0.9,61.26,0.9z M60.16,4.06l0.16,7.84h1.84l0.14-7.84H60.16z M62.36,13.1h-2.2v2.22h2.2V13.1z"/>
	</g>
</g>
<g id="Split_x5F_CMYK" display="none">
	<g display="inline">
		<path fill="#89C765" d="M9.12,0.88c1.253,0,2.433,0.24,3.54,0.72c1.106,0.48,2.07,1.13,2.89,1.95c0.82,0.82,1.47,1.784,1.95,2.89
			c0.48,1.107,0.72,2.287,0.72,3.54c0,1.269-0.24,2.453-0.72,3.562c-0.48,1.105-1.13,2.068-1.95,2.89
			c-0.82,0.819-1.783,1.47-2.89,1.95c-1.107,0.479-2.287,0.72-3.54,0.72c-1.267,0-2.454-0.24-3.56-0.72
			c-1.107-0.48-2.07-1.131-2.89-1.95c-0.82-0.82-1.47-1.783-1.95-2.89C0.24,12.433,0,11.248,0,9.98c0-1.253,0.24-2.433,0.72-3.54
			C1.2,5.333,1.85,4.37,2.67,3.55C3.49,2.73,4.453,2.08,5.56,1.6C6.667,1.12,7.853,0.88,9.12,0.88z M10.8,8.96
			c0.453-0.268,0.823-0.644,1.11-1.13c0.287-0.487,0.41-1.077,0.37-1.771c-0.027-0.413-0.137-0.76-0.33-1.04
			c-0.194-0.279-0.434-0.503-0.72-0.67C10.943,4.184,10.626,4.067,10.28,4C9.933,3.934,9.6,3.9,9.28,3.9
			c-0.507,0-0.96,0.027-1.36,0.08c-0.4,0.054-0.833,0.133-1.3,0.24l0.2,1.6c0.84-0.199,1.7-0.3,2.58-0.3
			c0.16,0,0.336,0.021,0.53,0.061c0.193,0.04,0.336,0.106,0.43,0.2c0.107,0.094,0.18,0.224,0.22,0.39
			c0.04,0.167,0.053,0.337,0.04,0.51c-0.014,0.173-0.054,0.337-0.12,0.49c-0.067,0.153-0.147,0.27-0.24,0.35
			C9.94,7.76,9.65,7.95,9.39,8.09C9.13,8.23,8.907,8.407,8.72,8.62C8.493,8.887,8.35,9.164,8.29,9.45
			C8.23,9.736,8.2,10.053,8.2,10.4v0.96c0,0.188,0.006,0.381,0.02,0.58h1.7v-0.3c0-0.12,0.003-0.28,0.01-0.479
			c0.006-0.199,0.01-0.459,0.01-0.779c0-0.307,0.066-0.574,0.2-0.8C10.273,9.354,10.493,9.147,10.8,8.96z M10.16,13.08H7.94v2.22
			h2.22V13.08z M35.32,0.8c1.253,0,2.437,0.24,3.55,0.72c1.113,0.48,2.08,1.133,2.9,1.96s1.47,1.793,1.95,2.9
			c0.48,1.106,0.72,2.287,0.72,3.54s-0.24,2.433-0.72,3.541c-0.48,1.105-1.13,2.069-1.95,2.89c-0.82,0.819-1.787,1.47-2.9,1.95
			c-1.114,0.479-2.297,0.72-3.55,0.72c-1.253,0-2.433-0.239-3.54-0.72c-1.106-0.48-2.07-1.131-2.89-1.95
			c-0.82-0.819-1.47-1.783-1.95-2.89c-0.48-1.107-0.72-2.287-0.72-3.541c0-1.253,0.24-2.434,0.72-3.54s1.13-2.073,1.95-2.9
			C29.71,2.653,30.673,2,31.78,1.52C32.887,1.04,34.066,0.8,35.32,0.8z M36.5,10.08v0.02l4.58-1.24L40.5,7.1l-4.42,1.7l0.18-4.32
			h-1.82l0.14,4.301V8.8l-4.42-1.7l-0.58,1.76l4.58,1.24l0.02,0.061l-2.96,3.68l1.5,1.101l2.58-3.96h0.06l2.6,3.96l1.48-1.101
			l-2.96-3.68L36.5,10.08z M61.26,0.9c1.253,0,2.434,0.24,3.54,0.721c1.106,0.479,2.07,1.13,2.891,1.949
			c0.819,0.82,1.47,1.784,1.949,2.891c0.48,1.106,0.72,2.287,0.72,3.54c0,1.267-0.24,2.454-0.721,3.56
			c-0.479,1.107-1.13,2.07-1.949,2.892c-0.82,0.818-1.784,1.469-2.891,1.948c-1.107,0.48-2.287,0.722-3.54,0.722
			c-1.267,0-2.453-0.24-3.56-0.722c-1.107-0.479-2.07-1.13-2.89-1.948c-0.82-0.82-1.47-1.783-1.95-2.892
			c-0.48-1.105-0.72-2.293-0.72-3.56c0-1.253,0.24-2.434,0.72-3.54s1.13-2.07,1.95-2.891c0.82-0.819,1.783-1.47,2.89-1.949
			C58.807,1.14,59.993,0.9,61.26,0.9z M60.16,4.06l0.16,7.84h1.84l0.14-7.84H60.16z M62.36,13.1h-2.2v2.22h2.2V13.1z"/>
	</g>
	<g display="inline">
		<path fill="#656D74" d="M88.586,4.801c0.228-0.693,0.678-1.19,1.352-1.49c0.672-0.3,1.469-0.442,2.389-0.43
			c0.174,0,0.387,0,0.641,0c0.255,0,0.515,0.007,0.781,0.02c0.267,0.015,0.535,0.027,0.81,0.04c0.272,0.015,0.522,0.034,0.75,0.061
			l-0.08,1.28c-0.054,0-0.108-0.007-0.17-0.021c-0.06-0.013-0.123-0.02-0.188-0.02c-0.334-0.04-0.681-0.073-1.041-0.101
			c-0.359-0.026-0.699-0.047-1.021-0.06c-0.187,0-0.363,0-0.529,0c-0.168,0-0.329,0.013-0.489,0.04
			c-0.269,0.026-0.511,0.072-0.73,0.14c-0.221,0.067-0.424,0.154-0.609,0.26c-0.4,0.24-0.641,0.58-0.721,1.021
			c-0.014,0.066-0.02,0.14-0.02,0.22s0,0.16,0,0.24c0.025,0.52,0.143,0.942,0.35,1.27s0.463,0.604,0.77,0.83
			c0.014,0.014,0.033,0.03,0.062,0.05c0.028,0.021,0.047,0.037,0.062,0.051l3.039,2.199c0.319,0.229,0.6,0.44,0.84,0.641
			c0.239,0.201,0.45,0.41,0.631,0.631c0.18,0.22,0.322,0.459,0.43,0.72c0.107,0.26,0.18,0.563,0.221,0.909
			c0.039,0.294,0.053,0.594,0.039,0.9c-0.014,0.306-0.066,0.594-0.16,0.859c-0.253,0.733-0.77,1.271-1.549,1.61
			c-0.781,0.34-1.684,0.51-2.711,0.51c-0.188,0-0.41-0.004-0.67-0.01c-0.26-0.008-0.537-0.019-0.83-0.03
			c-0.293-0.014-0.583-0.034-0.869-0.06c-0.287-0.027-0.544-0.056-0.771-0.08l0.08-1.301c0.055,0.014,0.11,0.022,0.17,0.029
			c0.061,0.007,0.117,0.018,0.17,0.03c0.388,0.053,0.801,0.097,1.24,0.13c0.44,0.033,0.834,0.058,1.181,0.069
			c0.134,0.014,0.261,0.018,0.38,0.011c0.12-0.007,0.24-0.011,0.359-0.011c0.399-0.025,0.783-0.086,1.149-0.181
			c0.367-0.093,0.685-0.231,0.951-0.42c0.347-0.239,0.546-0.612,0.601-1.118v-0.342c-0.015-0.307-0.052-0.565-0.111-0.779
			c-0.059-0.213-0.148-0.406-0.271-0.58c-0.118-0.173-0.272-0.336-0.459-0.49c-0.188-0.152-0.407-0.322-0.659-0.51l-3.041-2.181
			c-0.213-0.146-0.424-0.31-0.629-0.489c-0.207-0.181-0.398-0.384-0.57-0.61c-0.174-0.227-0.32-0.486-0.439-0.78
			c-0.121-0.293-0.201-0.633-0.24-1.02C88.381,5.861,88.426,5.308,88.586,4.801z M98.247,17.001v-9.38h1.26v9.38H98.247z
			 M102.307,11.082c0-0.682,0.087-1.254,0.26-1.722c0.174-0.466,0.414-0.843,0.721-1.13c0.308-0.287,0.67-0.493,1.09-0.62
			c0.42-0.126,0.877-0.189,1.371-0.189c0.492,0,0.933,0.06,1.318,0.18c0.146,0.053,0.327,0.083,0.541,0.09
			c0.213,0.008,0.434,0.011,0.66,0.011h0.439c0.278-0.014,0.537-0.037,0.77-0.07s0.471-0.077,0.711-0.13l0.061,1.12
			c-0.026,0.013-0.067,0.022-0.121,0.029c-0.053,0.008-0.112,0.018-0.18,0.03c-0.188,0.027-0.377,0.053-0.57,0.08
			c-0.192,0.027-0.369,0.04-0.529,0.04c-0.026,0-0.061,0.003-0.1,0.01c-0.041,0.007-0.074,0.01-0.102,0.01h-0.1
			c-0.027-0.013-0.029-0.003-0.01,0.03c0.019,0.033,0.043,0.063,0.069,0.09c0.039,0.055,0.08,0.101,0.119,0.141
			c0.146,0.253,0.265,0.547,0.351,0.88c0.088,0.333,0.131,0.713,0.131,1.14c0,0.653-0.08,1.207-0.24,1.66s-0.383,0.826-0.67,1.119
			c-0.287,0.294-0.627,0.514-1.021,0.66c-0.396,0.146-0.817,0.228-1.271,0.24c-0.08,0-0.164,0-0.25,0
			c-0.088,0-0.17-0.007-0.25-0.021c-0.106,0-0.211-0.007-0.311-0.02c-0.101-0.015-0.197-0.027-0.291-0.041
			c-0.025,0-0.057-0.007-0.09-0.021s-0.062-0.02-0.09-0.02l-0.6,0.738c-0.107,0.135-0.188,0.25-0.24,0.352
			c-0.053,0.1-0.073,0.209-0.061,0.33c0.053,0.173,0.2,0.266,0.44,0.278c0.012,0,0.032,0.004,0.06,0.011
			c0.026,0.008,0.047,0.01,0.061,0.01h2.82h0.539c0.826,0.055,1.414,0.297,1.76,0.729c0.348,0.434,0.527,0.95,0.541,1.552v0.18
			c0,0.426-0.08,0.797-0.24,1.109s-0.348,0.569-0.561,0.771c-0.468,0.453-1.039,0.739-1.72,0.86c-0.681,0.119-1.381,0.18-2.101,0.18
			c-0.387,0-0.813-0.033-1.28-0.1c-0.467-0.067-0.854-0.215-1.16-0.44c-0.253-0.187-0.459-0.424-0.618-0.71
			c-0.16-0.287-0.248-0.623-0.261-1.01v-0.26c0.024-0.349,0.146-0.691,0.358-1.031c0.214-0.34,0.453-0.623,0.722-0.851v-0.02
			c0.024-0.027,0.024-0.08,0-0.16c-0.334-0.134-0.547-0.406-0.642-0.82c-0.014-0.065-0.02-0.13-0.02-0.188c0-0.062,0-0.123,0-0.19
			c0.025-0.146,0.072-0.293,0.141-0.439c0.065-0.146,0.172-0.312,0.318-0.5l0.602-0.721l0.021-0.021
			c-0.026-0.012-0.034-0.032-0.021-0.059c0.013-0.027,0.006-0.048-0.021-0.062C102.727,13.541,102.307,12.507,102.307,11.082z
			 M107.426,17.421h-2.68c-0.347,0.227-0.66,0.492-0.939,0.8c-0.279,0.306-0.42,0.64-0.42,1c0,0.507,0.166,0.88,0.5,1.12
			c0.188,0.133,0.447,0.22,0.779,0.26c0.334,0.04,0.627,0.062,0.881,0.062c0.427,0,0.893-0.034,1.399-0.102
			c0.507-0.066,0.939-0.232,1.3-0.5c0.213-0.146,0.36-0.333,0.44-0.56c0.08-0.229,0.119-0.494,0.119-0.801
			c0-0.119-0.021-0.253-0.06-0.4c-0.041-0.146-0.115-0.286-0.221-0.42c-0.107-0.133-0.248-0.242-0.42-0.33
			C107.934,17.464,107.708,17.421,107.426,17.421z M105.747,8.521c-1.479,0-2.22,0.86-2.22,2.58c0,1.707,0.74,2.562,2.22,2.562
			c1.494,0,2.239-0.854,2.239-2.562C107.986,9.381,107.241,8.521,105.747,8.521z M119.426,16.981h-1.299v-7.06
			c0-0.293-0.055-0.53-0.16-0.71c-0.107-0.18-0.24-0.32-0.4-0.42c-0.16-0.101-0.33-0.17-0.51-0.21s-0.35-0.061-0.51-0.061
			c-0.601,0-1.18,0.061-1.74,0.181c-0.561,0.119-1.053,0.333-1.48,0.64v7.64h-1.299V7.621h1.02l0.142,0.6h0.021
			c0.707-0.36,1.34-0.583,1.899-0.67c0.56-0.086,1.101-0.13,1.619-0.13c0.308,0,0.616,0.04,0.931,0.12
			c0.313,0.08,0.598,0.213,0.85,0.399c0.254,0.188,0.465,0.428,0.631,0.721s0.264,0.652,0.29,1.08v7.239H119.426z M122.307,7.721
			c0.52-0.106,1.014-0.183,1.48-0.229c0.465-0.048,1-0.07,1.6-0.07c0.881,0,1.604,0.173,2.17,0.52c0.566,0.348,0.85,0.94,0.85,1.78
			v7.28h-0.859l-0.159-0.621c-0.015,0.014-0.029,0.022-0.05,0.031c-0.021,0.006-0.045,0.022-0.069,0.049
			c-0.041,0.026-0.074,0.055-0.101,0.08c-0.521,0.294-1.021,0.477-1.5,0.551c-0.479,0.072-1.008,0.109-1.58,0.109
			c-0.319,0-0.635-0.062-0.94-0.189s-0.58-0.303-0.819-0.53c-0.24-0.227-0.431-0.497-0.57-0.81
			c-0.139-0.313-0.209-0.664-0.209-1.051c0-0.506,0.082-0.974,0.25-1.399c0.166-0.427,0.502-0.772,1.01-1.04
			c0.268-0.146,0.576-0.257,0.93-0.33s0.717-0.13,1.09-0.17c0.428-0.053,0.842-0.084,1.24-0.09c0.4-0.007,0.78-0.01,1.141-0.01
			V10.02c0-0.025,0-0.062,0-0.109c0-0.048-0.006-0.083-0.02-0.11c-0.027-0.426-0.164-0.736-0.41-0.93
			c-0.248-0.193-0.604-0.311-1.07-0.351c-0.239-0.025-0.514-0.025-0.819,0c-0.334,0.027-0.699,0.07-1.101,0.13
			c-0.4,0.061-0.768,0.124-1.1,0.19c-0.066,0.014-0.127,0.027-0.182,0.04c-0.053,0.014-0.1,0.027-0.139,0.04L122.307,7.721z
			 M123.447,13.101c-0.307,0.174-0.493,0.4-0.561,0.681c-0.066,0.279-0.101,0.554-0.101,0.819c0,0.199,0.036,0.387,0.109,0.562
			c0.074,0.173,0.17,0.325,0.291,0.459c0.119,0.134,0.26,0.244,0.42,0.33c0.16,0.088,0.326,0.137,0.5,0.149h0.199
			c0.561,0,1.066-0.053,1.52-0.16c0.453-0.105,0.914-0.312,1.381-0.62v-2.699c-0.307-0.014-0.637-0.014-0.99,0
			s-0.735,0.041-1.149,0.08c-0.319,0.041-0.623,0.09-0.91,0.149C123.87,12.912,123.633,12.995,123.447,13.101z M131.066,17.001v-14
			h1.201v14H131.066z M134.907,8.961c0.2-0.546,0.576-0.94,1.131-1.18c0.553-0.24,1.184-0.36,1.889-0.36
			c0.548,0,0.99,0.01,1.33,0.03c0.341,0.02,0.67,0.057,0.99,0.109l-0.06,1.181c-0.041-0.014-0.091-0.027-0.149-0.04
			c-0.062-0.014-0.117-0.027-0.17-0.04c-0.228-0.027-0.472-0.051-0.73-0.07c-0.26-0.021-0.523-0.037-0.79-0.05
			c-0.308-0.026-0.573-0.021-0.8,0.02c-0.348,0.027-0.67,0.117-0.971,0.271c-0.3,0.152-0.482,0.377-0.55,0.67
			c-0.026,0.133-0.032,0.232-0.021,0.3c0.025,0.307,0.123,0.546,0.289,0.72s0.363,0.313,0.591,0.42l2.221,1.32
			c0.252,0.146,0.489,0.297,0.709,0.449c0.222,0.154,0.407,0.324,0.562,0.511c0.151,0.188,0.272,0.403,0.358,0.649
			c0.087,0.247,0.132,0.544,0.132,0.891c0,0.439-0.099,0.812-0.291,1.119c-0.193,0.308-0.453,0.558-0.779,0.75
			c-0.326,0.193-0.703,0.334-1.131,0.42c-0.426,0.088-0.867,0.131-1.319,0.131c-0.134,0-0.298,0-0.489,0
			c-0.193,0-0.395-0.004-0.602-0.01c-0.207-0.008-0.412-0.021-0.619-0.041c-0.207-0.021-0.391-0.043-0.551-0.069l0.061-1.2
			c0.041,0.015,0.09,0.023,0.15,0.03c0.06,0.007,0.117,0.018,0.17,0.03c0.213,0.026,0.437,0.05,0.67,0.07
			c0.232,0.02,0.463,0.035,0.689,0.049c0.387,0.026,0.733,0.026,1.041,0c0.426-0.025,0.809-0.126,1.149-0.299
			c0.34-0.175,0.528-0.468,0.569-0.882c0.013-0.053,0.021-0.127,0.021-0.22c-0.015-0.173-0.047-0.323-0.101-0.45
			c-0.055-0.127-0.127-0.235-0.221-0.33c-0.094-0.093-0.199-0.176-0.32-0.25c-0.119-0.071-0.254-0.155-0.399-0.25
			c-0.026,0-0.06-0.02-0.101-0.061l-2.02-1.18c-0.16-0.094-0.326-0.196-0.5-0.311c-0.174-0.113-0.338-0.243-0.49-0.39
			c-0.154-0.146-0.287-0.316-0.399-0.51c-0.113-0.194-0.188-0.432-0.229-0.711C134.747,9.761,134.773,9.348,134.907,8.961z"/>
	</g>
</g>
</svg>
