<?xml version="1.0" encoding="utf-8"?>
<!-- Generator: Adobe Illustrator 16.0.4, SVG Export Plug-In . SVG Version: 6.00 Build 0)  -->
<!DOCTYPE svg PUBLIC "-//W3C//DTD SVG 1.1//EN" "http://www.w3.org/Graphics/SVG/1.1/DTD/svg11.dtd">
<svg version="1.1" id="Layer_1" xmlns="http://www.w3.org/2000/svg" xmlns:xlink="http://www.w3.org/1999/xlink" x="0px" y="0px"
	 width="154.555px" height="57.098px" viewBox="0 0 154.555 57.098" style="enable-background:new 0 0 154.555 57.098;"
	 xml:space="preserve">
<path style="fill:#585C5D;" d="M89.961,36.711c0.426-0.135,1.051-0.282,1.744-0.282c1.215,0,1.807,0.52,1.807,1.584v4.597h1.205
	v-4.785c0-1.686-0.961-2.537-2.854-2.537c-0.688,0-1.404,0.152-1.902,0.314v-4.023h-1.203v11.031h1.203V36.711L89.961,36.711z"/>
<path style="fill:#585C5D;" d="M99.838,41.691c-1.424,0-2.379-1.07-2.379-2.666c0-1.59,0.955-2.659,2.379-2.659
	c1.422,0,2.377,1.069,2.377,2.659C102.215,40.621,101.26,41.691,99.838,41.691L99.838,41.691z M103.434,39.025
	c0-2.201-1.479-3.738-3.596-3.738c-2.119,0-3.6,1.537-3.6,3.738c0,2.204,1.48,3.742,3.6,3.742
	C101.956,42.768,103.434,41.229,103.434,39.025L103.434,39.025z"/>
<path style="fill:#585C5D;" d="M107.247,38.463c-1.141-0.355-1.354-0.691-1.354-1.179c0-0.576,0.43-0.935,1.123-0.935
	c0.668,0,1.189,0.207,1.805,0.716l0.209,0.171v-1.365l-0.055-0.038c-0.512-0.362-1.172-0.546-1.959-0.546
	c-1.395,0-2.299,0.783-2.299,1.997c0,1.274,0.703,1.769,1.83,2.148c1.117,0.372,1.611,0.566,1.611,1.29
	c0,0.652-0.438,0.984-1.299,0.984c-0.676,0-1.252-0.247-1.865-0.795l-0.213-0.189v1.427l0.049,0.036
	c0.463,0.357,1.238,0.582,2.029,0.582c1.533,0,2.486-0.808,2.486-2.109C109.346,39.36,108.543,38.855,107.247,38.463L107.247,38.463
	z"/>
<path style="fill:#585C5D;" d="M113.596,41.691c-0.527,0-0.986-0.081-1.396-0.245v-4.878c0.332-0.098,0.818-0.156,1.332-0.156
	c1.732,0,2.725,0.954,2.725,2.613C116.256,40.67,115.235,41.691,113.596,41.691L113.596,41.691z M113.532,35.287
	c-0.793,0-1.688,0.166-2.453,0.451l-0.084,0.031v9.691h1.205v-2.916c0.379,0.139,0.902,0.223,1.396,0.223
	c2.357,0,3.883-1.467,3.883-3.742C117.479,36.65,116.04,35.287,113.532,35.287L113.532,35.287z"/>
<polygon style="fill:#585C5D;" points="119.081,42.609 120.284,42.609 120.284,35.446 119.081,35.446 119.081,42.609 "/>
<path style="fill:#585C5D;" d="M119.68,34.258c0.457,0,0.842-0.386,0.842-0.84c0-0.463-0.377-0.841-0.842-0.841
	c-0.453,0-0.838,0.385-0.838,0.841C118.842,33.864,119.235,34.258,119.68,34.258L119.68,34.258z"/>
<path style="fill:#585C5D;" d="M126.323,42.371v-1.125l-0.182,0.094c-0.479,0.237-0.814,0.367-1.23,0.367
	c-0.43,0-0.871-0.135-0.871-1.111v-4.088h1.949v-1.062h-1.949v-1.681h-1.205v1.681h-1.061v1.062h1.061v4.182
	c0,1.342,0.664,2.078,1.871,2.078c0.555,0,1.061-0.115,1.547-0.361L126.323,42.371L126.323,42.371z"/>
<path style="fill:#585C5D;" d="M131.157,41.616c-0.281,0.047-0.582,0.075-0.84,0.075c-0.953,0-2.092-0.198-2.092-1.127
	c0-1.021,1.471-1.172,2.346-1.172h0.586V41.616L131.157,41.616z M130.27,42.736c0.66,0,1.41-0.096,1.998-0.259l0.092-0.024v-4.869
	c0-1.501-0.838-2.297-2.426-2.297c-0.756,0-1.535,0.196-2.197,0.553l-0.068,0.036v1.189l0.188-0.095
	c0.535-0.283,1.145-0.542,1.969-0.542c0.859,0,1.332,0.433,1.332,1.22v0.714h-0.65c-2.213,0-3.484,0.802-3.484,2.202
	C127.022,41.555,127.586,42.736,130.27,42.736L130.27,42.736z"/>
<polygon style="fill:#585C5D;" points="135.579,31.578 134.377,31.578 134.377,42.609 135.579,42.609 135.579,31.578 "/>
<path style="fill:#585C5D;" d="M91.213,46.842c0.418,0,0.77,0.119,1.146,0.391l0.202,0.143V46.16l-0.054-0.039
	c-0.361-0.257-0.764-0.372-1.311-0.372c-1.43,0-2.252,0.883-2.252,2.427v1.598h-1.061v1.064h1.061v6.1h1.207v-6.1h1.9v-1.064h-1.9
	v-1.582C90.153,47.002,90.69,46.842,91.213,46.842L91.213,46.842z"/>
<path style="fill:#585C5D;" d="M96.096,56.02c-1.424,0-2.379-1.072-2.379-2.664c0-1.59,0.955-2.662,2.379-2.662
	c1.422,0,2.377,1.072,2.377,2.662C98.473,54.947,97.518,56.02,96.096,56.02L96.096,56.02z M96.096,49.615
	c-2.119,0-3.596,1.539-3.596,3.74c0,2.203,1.477,3.742,3.596,3.742c2.117,0,3.598-1.539,3.598-3.742
	C99.694,51.154,98.213,49.615,96.096,49.615L96.096,49.615z"/>
<path style="fill:#585C5D;" d="M105.733,55.938c-0.453,0.053-0.945,0.082-1.395,0.082c-1.344,0-1.998-0.494-1.998-1.506v-4.74
	h-1.203v4.787c0,1.706,1.068,2.537,3.264,2.537c0.75,0,1.615-0.086,2.434-0.238l0.104-0.021v-7.064h-1.205V55.938L105.733,55.938z"
	/>
<path style="fill:#585C5D;" d="M112.088,49.615c-0.938,0-2.012,0.195-2.943,0.531l-0.083,0.031v6.76h1.204v-5.954
	c0.613-0.151,1.186-0.228,1.744-0.228c1.217,0,1.807,0.52,1.807,1.586v4.596h1.207v-4.785
	C115.024,50.471,114.036,49.615,112.088,49.615L112.088,49.615z"/>
<path style="fill:#585C5D;" d="M121.852,55.941c-0.324,0.042-0.691,0.062-1.172,0.062c-1.799,0-2.916-1.014-2.916-2.648
	c0-1.6,1.064-2.631,2.711-2.631c0.541,0,1.027,0.096,1.377,0.27V55.941L121.852,55.941z M121.852,49.857
	c-0.395-0.166-0.951-0.242-1.377-0.242c-2.316,0-3.932,1.539-3.932,3.74c0,2.309,1.584,3.742,4.137,3.742
	c0.775,0,1.562-0.09,2.279-0.258l0.1-0.023v-10.91h-1.207V49.857L121.852,49.857z"/>
<path style="fill:#585C5D;" d="M127.926,56.02c-0.955,0-2.092-0.195-2.092-1.126c0-1.021,1.469-1.173,2.344-1.173h0.586v2.223
	C128.483,55.991,128.184,56.02,127.926,56.02L127.926,56.02z M127.543,49.615c-0.756,0-1.537,0.197-2.201,0.553l-0.064,0.037v1.189
	l0.186-0.098c0.535-0.279,1.143-0.541,1.971-0.541c0.857,0,1.33,0.434,1.33,1.221v0.717h-0.65c-2.215,0-3.484,0.801-3.484,2.2
	c0,0.991,0.562,2.171,3.248,2.171c0.666,0,1.41-0.096,2-0.258l0.092-0.024v-4.869C129.969,50.41,129.129,49.615,127.543,49.615
	L127.543,49.615z"/>
<path style="fill:#585C5D;" d="M134.329,56.035c-0.434,0-0.873-0.131-0.873-1.109v-4.088h1.949v-1.064h-1.949v-1.68h-1.205v1.68
	h-1.061v1.064h1.061v4.184c0,1.338,0.666,2.076,1.871,2.076c0.553,0,1.059-0.119,1.547-0.361l0.07-0.035v-1.125l-0.184,0.091
	C135.079,55.906,134.743,56.035,134.329,56.035L134.329,56.035z"/>
<path style="fill:#585C5D;" d="M137.594,46.908c-0.457,0-0.842,0.381-0.842,0.838c0,0.445,0.395,0.84,0.842,0.84
	c0.455,0,0.84-0.386,0.84-0.84C138.434,47.282,138.057,46.908,137.594,46.908L137.594,46.908z"/>
<polygon style="fill:#585C5D;" points="136.993,56.938 138.198,56.938 138.198,49.773 136.993,49.773 136.993,56.938 "/>
<path style="fill:#585C5D;" d="M143.395,56.02c-1.424,0-2.379-1.072-2.379-2.664c0-1.59,0.955-2.662,2.379-2.662
	c1.422,0,2.379,1.072,2.379,2.662C145.774,54.947,144.817,56.02,143.395,56.02L143.395,56.02z M143.395,49.615
	c-2.117,0-3.596,1.539-3.596,3.74c0,2.203,1.479,3.742,3.596,3.742s3.598-1.539,3.598-3.742
	C146.993,51.154,145.512,49.615,143.395,49.615L143.395,49.615z"/>
<g>
	<defs>
		<rect id="SVGID_1_" width="154.555" height="57.098"/>
	</defs>
	<clipPath id="SVGID_2_">
		<use xlink:href="#SVGID_1_"  style="overflow:visible;"/>
	</clipPath>
	<path style="clip-path:url(#SVGID_2_);fill:#585C5D;" d="M151.624,49.615c-0.941,0-2.014,0.195-2.945,0.531l-0.084,0.031v6.76
		h1.205v-5.954c0.615-0.151,1.184-0.228,1.742-0.228c1.217,0,1.809,0.52,1.809,1.586v4.596h1.205v-4.785
		C154.555,50.471,153.567,49.615,151.624,49.615L151.624,49.615z"/>
	<polygon style="clip-path:url(#SVGID_2_);fill:#585C5D;" points="15.355,25.174 27.352,0.311 20.515,0.311 13.885,15.165 
		6.881,0.311 -0.023,0.311 12.549,25.174 15.355,25.174 	"/>
</g>
<path style="fill:#585C5D;" d="M47.586,24.642c2.016-0.625,3.514-1.432,4.507-2.421V10.877h-9.837v4.972h3.608v3.666
	c-1.38,0.588-2.759,0.885-4.125,0.885c-2.583,0-4.664-0.676-6.251-2.031c-1.58-1.359-2.37-3.131-2.37-5.319
	c0-2.289,0.79-4.169,2.37-5.644c1.587-1.474,3.841-2.217,6.768-2.217c3.036,0,6.143,0.774,9.318,2.307V2.053
	C48.684,0.683,45.403,0,41.739,0c-4.438,0-8.056,1.194-10.844,3.575c-2.792,2.391-4.19,5.473-4.19,9.259
	c0,3.702,1.398,6.752,4.19,9.145c2.788,2.403,6.357,3.604,10.7,3.604C43.572,25.583,45.567,25.27,47.586,24.642L47.586,24.642z"/>
<path style="fill:#585C5D;" d="M20.188,45.751c0,1.974-0.57,3.493-1.718,4.567c-1.15,1.07-2.68,1.605-4.594,1.605
	c-1.846,0-3.336-0.524-4.469-1.568C8.27,49.309,7.7,47.914,7.7,46.18V31.848H1.475v14.189c0,3.566,1.091,6.301,3.275,8.207
	c2.182,1.902,5.246,2.852,9.197,2.852c3.996,0,7.072-0.939,9.223-2.813c2.157-1.882,3.232-4.642,3.232-8.282V31.848h-6.214V45.751
	L20.188,45.751z"/>
<path style="fill:#585C5D;" d="M44.924,51.471c-0.725,0.459-1.914,0.688-3.57,0.688h-3.496v-5.874h4.353
	c1.155,0,2.076,0.255,2.766,0.763c0.689,0.497,1.036,1.185,1.036,2.051C46.013,50.225,45.648,51.016,44.924,51.471L44.924,51.471z
	 M37.858,36.408h3.247c1.002,0,1.777,0.25,2.336,0.746c0.559,0.501,0.84,1.127,0.84,1.886c0,0.771-0.281,1.413-0.84,1.925
	c-0.559,0.51-1.334,0.762-2.336,0.762h-3.247V36.408L37.858,36.408z M47.276,43.039c2.272-1.154,3.409-2.808,3.409-4.967
	c0-1.684-0.734-3.137-2.202-4.373c-1.47-1.234-3.488-1.852-6.06-1.852H31.646v24.866h12.137c2.888,0,5.078-0.675,6.564-2.028
	c1.488-1.354,2.234-3.113,2.234-5.273c0-1.518-0.457-2.846-1.367-3.988C50.304,44.284,48.992,43.487,47.276,43.039L47.276,43.039z"
	/>
<polygon style="fill:#585C5D;" points="79.434,0.311 73.221,0.311 73.221,9.634 79.434,0.311 "/>
<polygon style="fill:#585C5D;" points="63.041,9.635 63.041,0.311 56.826,0.311 56.826,25.174 63.041,25.174 63.041,15.849 
	69.074,15.849 73.219,9.635 63.041,9.635 "/>
<polygon style="fill:#92C63F;" points="79.434,9.634 79.434,0.311 69.074,15.849 73.219,15.849 73.219,25.174 79.434,25.174 
	79.434,15.849 88.758,15.849 88.758,9.634 79.434,9.634 "/>
<path style="fill:#585C5D;" d="M79.434,49.313c-2.213,1.075-3.893,1.774-5.036,2.103c-1.189,0.338-2.427,0.508-3.711,0.508
	c-2.591,0-4.716-0.719-6.378-2.158c-1.657-1.441-2.488-3.269-2.488-5.479c0-2.198,0.844-4.011,2.525-5.433
	c1.684-1.424,3.854-2.131,6.502-2.131c2.702,0,5.564,0.848,8.586,2.553v-5.551c-2.465-1.465-5.474-2.196-9.03-2.196
	c-4.46,0-8.077,1.247-10.84,3.747c-2.766,2.5-4.148,5.539-4.148,9.117c0,3.582,1.31,6.595,3.934,9.037
	c2.622,2.445,6.148,3.666,10.573,3.666c3.311,0,6.48-0.773,9.511-2.334V49.313L79.434,49.313z"/>
<g>
</g>
<g>
</g>
<g>
</g>
<g>
</g>
<g>
</g>
<g>
</g>
</svg>
