<?xml version="1.0" encoding="utf-8"?>
<!-- Generator: Adobe Illustrator 16.0.4, SVG Export Plug-In . SVG Version: 6.00 Build 0)  -->
<!DOCTYPE svg PUBLIC "-//W3C//DTD SVG 1.1//EN" "http://www.w3.org/Graphics/SVG/1.1/DTD/svg11.dtd">
<svg version="1.1" id="Layer_1" xmlns="http://www.w3.org/2000/svg" xmlns:xlink="http://www.w3.org/1999/xlink" x="0px" y="0px"
	 width="157.736px" height="87.302px" viewBox="0 0 157.736 87.302" style="enable-background:new 0 0 157.736 87.302;"
	 xml:space="preserve">
<g>
	<path style="fill:#FFFFFF;" d="M91.824,37.461c0.434-0.139,1.072-0.289,1.779-0.289c1.24,0,1.844,0.529,1.844,1.617v4.69h1.229
		v-4.884c0-1.719-0.979-2.589-2.912-2.589c-0.701,0-1.432,0.156-1.939,0.321v-4.105h-1.229v11.257h1.229V37.461L91.824,37.461z"/>
	<path style="fill:#FFFFFF;" d="M101.902,42.543c-1.453,0-2.428-1.095-2.428-2.721c0-1.624,0.975-2.715,2.428-2.715
		c1.449,0,2.424,1.091,2.424,2.715C104.326,41.448,103.352,42.543,101.902,42.543L101.902,42.543z M105.572,39.822
		c0-2.246-1.51-3.815-3.67-3.815c-2.164,0-3.672,1.569-3.672,3.815c0,2.248,1.508,3.817,3.672,3.817
		C104.062,43.64,105.572,42.07,105.572,39.822L105.572,39.822z"/>
	<path style="fill:#FFFFFF;" d="M109.461,39.248c-1.162-0.363-1.381-0.705-1.381-1.203c0-0.588,0.438-0.953,1.146-0.953
		c0.68,0,1.213,0.21,1.842,0.729l0.213,0.175v-1.394l-0.055-0.039c-0.523-0.37-1.195-0.557-2-0.557
		c-1.424,0-2.346,0.799-2.346,2.038c0,1.301,0.717,1.805,1.867,2.192c1.141,0.38,1.643,0.577,1.643,1.317
		c0,0.664-0.445,1.004-1.324,1.004c-0.689,0-1.277-0.252-1.902-0.812l-0.219-0.192v1.454l0.053,0.037
		c0.471,0.366,1.262,0.594,2.068,0.594c1.566,0,2.537-0.823,2.537-2.151C111.604,40.164,110.785,39.648,109.461,39.248
		L109.461,39.248z"/>
	<path style="fill:#FFFFFF;" d="M115.939,42.543c-0.537,0-1.006-0.084-1.424-0.251v-4.978c0.338-0.102,0.836-0.158,1.359-0.158
		c1.768,0,2.781,0.972,2.781,2.666C118.656,41.5,117.613,42.543,115.939,42.543L115.939,42.543z M115.875,36.007
		c-0.809,0-1.723,0.169-2.502,0.461l-0.086,0.032v9.889h1.229v-2.975c0.387,0.141,0.922,0.226,1.424,0.226
		c2.406,0,3.963-1.497,3.963-3.817C119.902,37.398,118.436,36.007,115.875,36.007L115.875,36.007z"/>
	<polygon style="fill:#FFFFFF;" points="121.537,43.479 122.766,43.479 122.766,36.169 121.537,36.169 121.537,43.479 	"/>
	<path style="fill:#FFFFFF;" d="M122.15,34.957c0.465,0,0.857-0.394,0.857-0.857c0-0.473-0.385-0.857-0.857-0.857
		c-0.465,0-0.857,0.393-0.857,0.857C121.293,34.555,121.695,34.957,122.15,34.957L122.15,34.957z"/>
	<path style="fill:#FFFFFF;" d="M128.928,43.235v-1.147l-0.188,0.096c-0.486,0.242-0.83,0.375-1.254,0.375
		c-0.439,0-0.889-0.139-0.889-1.135v-4.172h1.99v-1.083h-1.99v-1.715h-1.23v1.715h-1.082v1.083h1.082v4.269
		c0,1.368,0.68,2.119,1.91,2.119c0.564,0,1.082-0.118,1.578-0.369L128.928,43.235L128.928,43.235z"/>
	<path style="fill:#FFFFFF;" d="M133.861,42.465c-0.289,0.049-0.594,0.078-0.859,0.078c-0.971,0-2.133-0.203-2.133-1.15
		c0-1.041,1.5-1.197,2.393-1.197h0.6V42.465L133.861,42.465z M132.955,43.607c0.674,0,1.438-0.098,2.039-0.263l0.094-0.026v-4.968
		c0-1.532-0.855-2.344-2.475-2.344c-0.771,0-1.568,0.2-2.242,0.565l-0.07,0.036v1.213l0.191-0.098
		c0.545-0.287,1.168-0.552,2.008-0.552c0.879,0,1.361,0.441,1.361,1.244v0.729h-0.664c-2.26,0-3.557,0.818-3.557,2.248
		C129.641,42.402,130.217,43.607,132.955,43.607L132.955,43.607z"/>
	<polygon style="fill:#FFFFFF;" points="138.371,32.223 137.146,32.223 137.146,43.479 138.371,43.479 138.371,32.223 	"/>
	<path style="fill:#FFFFFF;" d="M93.102,47.798c0.426,0,0.785,0.122,1.17,0.397l0.207,0.146v-1.24l-0.057-0.039
		c-0.367-0.263-0.779-0.38-1.336-0.38c-1.461,0-2.297,0.9-2.297,2.476v1.631h-1.084v1.086h1.084v6.227h1.23v-6.227h1.938v-1.086
		H92.02v-1.615C92.02,47.961,92.566,47.798,93.102,47.798L93.102,47.798z"/>
	<path style="fill:#FFFFFF;" d="M98.084,57.162c-1.453,0-2.428-1.094-2.428-2.717s0.975-2.718,2.428-2.718
		c1.449,0,2.426,1.095,2.426,2.718S99.533,57.162,98.084,57.162L98.084,57.162z M98.084,50.627c-2.162,0-3.67,1.57-3.67,3.818
		c0,2.247,1.508,3.817,3.67,3.817c2.16,0,3.67-1.57,3.67-3.817C101.754,52.197,100.244,50.627,98.084,50.627L98.084,50.627z"/>
	<path style="fill:#FFFFFF;" d="M107.918,57.079c-0.465,0.054-0.967,0.083-1.424,0.083c-1.371,0-2.039-0.503-2.039-1.536v-4.837
		h-1.227v4.885c0,1.74,1.09,2.589,3.33,2.589c0.766,0,1.646-0.088,2.482-0.243l0.107-0.021v-7.209h-1.23V57.079L107.918,57.079z"/>
	<path style="fill:#FFFFFF;" d="M114.402,50.627c-0.957,0-2.053,0.199-3.002,0.543l-0.086,0.031v6.9h1.229v-6.078
		c0.627-0.154,1.211-0.231,1.779-0.231c1.242,0,1.844,0.529,1.844,1.618v4.691h1.232v-4.885
		C117.398,51.5,116.389,50.627,114.402,50.627L114.402,50.627z"/>
	<path style="fill:#FFFFFF;" d="M124.365,57.082c-0.33,0.044-0.705,0.064-1.195,0.064c-1.836,0-2.977-1.035-2.977-2.701
		c0-1.633,1.086-2.686,2.766-2.686c0.555,0,1.049,0.096,1.406,0.275V57.082L124.365,57.082z M124.365,50.874
		c-0.404-0.168-0.971-0.247-1.406-0.247c-2.363,0-4.01,1.57-4.01,3.818c0,2.354,1.615,3.817,4.221,3.817
		c0.791,0,1.594-0.093,2.326-0.263l0.1-0.024V46.844h-1.23V50.874L124.365,50.874z"/>
	<path style="fill:#FFFFFF;" d="M130.562,57.162c-0.973,0-2.135-0.198-2.135-1.148c0-1.041,1.5-1.196,2.393-1.196h0.6v2.269
		C131.133,57.134,130.826,57.162,130.562,57.162L130.562,57.162z M130.174,50.627c-0.771,0-1.57,0.202-2.246,0.564l-0.066,0.039
		v1.213l0.189-0.1c0.545-0.285,1.164-0.552,2.01-0.552c0.877,0,1.359,0.442,1.359,1.245v0.731h-0.664
		c-2.26,0-3.557,0.817-3.557,2.245c0,1.011,0.574,2.216,3.314,2.216c0.68,0,1.439-0.098,2.039-0.263l0.096-0.026v-4.968
		C132.648,51.439,131.791,50.627,130.174,50.627L130.174,50.627z"/>
	<path style="fill:#FFFFFF;" d="M137.098,57.179c-0.443,0-0.893-0.135-0.893-1.133v-4.171h1.99v-1.086h-1.99v-1.715h-1.229v1.715
		h-1.082v1.086h1.082v4.27c0,1.365,0.68,2.118,1.908,2.118c0.566,0,1.08-0.122,1.58-0.368l0.072-0.035V56.71l-0.188,0.093
		C137.863,57.047,137.52,57.179,137.098,57.179L137.098,57.179z"/>
	<path style="fill:#FFFFFF;" d="M140.428,47.865c-0.465,0-0.857,0.39-0.857,0.854c0,0.456,0.402,0.856,0.857,0.856
		c0.467,0,0.859-0.393,0.859-0.856C141.287,48.247,140.902,47.865,140.428,47.865L140.428,47.865z"/>
	<polygon style="fill:#FFFFFF;" points="139.814,58.102 141.045,58.102 141.045,50.789 139.814,50.789 139.814,58.102 	"/>
	<path style="fill:#FFFFFF;" d="M146.348,57.162c-1.451,0-2.428-1.094-2.428-2.717s0.977-2.718,2.428-2.718s2.428,1.095,2.428,2.718
		S147.799,57.162,146.348,57.162L146.348,57.162z M146.348,50.627c-2.16,0-3.668,1.57-3.668,3.818c0,2.247,1.508,3.817,3.668,3.817
		s3.672-1.57,3.672-3.817C150.02,52.197,148.508,50.627,146.348,50.627L146.348,50.627z"/>
	<path style="fill:#FFFFFF;" d="M154.744,50.627c-0.959,0-2.055,0.199-3.004,0.543l-0.088,0.031v6.9h1.23v-6.078
		c0.627-0.154,1.209-0.231,1.779-0.231c1.24,0,1.844,0.529,1.844,1.618v4.691h1.23v-4.885
		C157.736,51.5,156.729,50.627,154.744,50.627L154.744,50.627z"/>
	<polygon style="fill:#FFFFFF;" points="15.696,25.688 27.935,0.316 20.959,0.316 14.194,15.474 7.047,0.316 0,0.316 12.831,25.688 
		15.696,25.688 	"/>
	<path style="fill:#FFFFFF;" d="M48.582,25.145c2.057-0.639,3.586-1.461,4.6-2.471V11.1H43.145v5.073h3.682v3.739
		c-1.408,0.602-2.815,0.904-4.209,0.904c-2.637,0-4.76-0.689-6.379-2.072c-1.614-1.388-2.419-3.195-2.419-5.429
		c0-2.335,0.805-4.254,2.419-5.759c1.619-1.505,3.919-2.262,6.906-2.262c3.098,0,6.268,0.789,9.508,2.354V2.095
		C49.703,0.695,46.356,0,42.618,0c-4.529,0-8.221,1.217-11.066,3.647c-2.849,2.439-4.274,5.586-4.274,9.448
		c0,3.777,1.426,6.89,4.274,9.332c2.846,2.452,6.488,3.676,10.92,3.676C44.487,26.104,46.523,25.784,48.582,25.145L48.582,25.145z"
		/>
	<path style="fill:#FFFFFF;" d="M20.626,46.684c0,2.016-0.583,3.566-1.754,4.662c-1.173,1.092-2.733,1.638-4.687,1.638
		c-1.884,0-3.404-0.536-4.561-1.601c-1.162-1.068-1.742-2.492-1.742-4.261V32.498H1.53v14.479c0,3.638,1.113,6.428,3.342,8.374
		c2.227,1.94,5.355,2.909,9.387,2.909c4.077,0,7.217-0.959,9.411-2.871c2.2-1.92,3.298-4.735,3.298-8.45V32.498h-6.341V46.684
		L20.626,46.684z"/>
	<path style="fill:#FFFFFF;" d="M45.868,52.522c-0.741,0.467-1.954,0.7-3.643,0.7h-3.568v-5.993h4.441
		c1.18,0,2.119,0.259,2.822,0.777c0.704,0.507,1.057,1.208,1.057,2.093C46.977,51.25,46.607,52.057,45.868,52.522L45.868,52.522z
		 M38.657,37.151h3.314c1.021,0,1.812,0.255,2.382,0.761c0.571,0.512,0.858,1.15,0.858,1.925c0,0.787-0.287,1.441-0.858,1.963
		c-0.569,0.522-1.36,0.778-2.382,0.778h-3.314V37.151L38.657,37.151z M48.267,43.917c2.319-1.178,3.479-2.864,3.479-5.067
		c0-1.717-0.749-3.202-2.247-4.463c-1.5-1.26-3.56-1.889-6.185-1.889H32.319v25.373h12.384c2.946,0,5.182-0.689,6.699-2.07
		c1.518-1.383,2.279-3.176,2.279-5.381c0-1.548-0.467-2.902-1.396-4.069C51.357,45.188,50.017,44.375,48.267,43.917L48.267,43.917z"
		/>
	<polygon style="fill:#FFFFFF;" points="81.082,0.316 74.741,0.316 74.741,9.831 81.082,0.316 	"/>
	<polygon style="fill:#FFFFFF;" points="64.354,9.831 64.354,0.316 58.012,0.316 58.012,25.688 64.354,25.688 64.354,16.173 
		70.51,16.173 74.741,9.831 64.354,9.831 	"/>
	<polygon style="fill:#92C63F;" points="81.082,9.83 81.082,0.316 70.51,16.173 74.739,16.173 74.739,25.688 81.082,25.688 
		81.082,16.173 90.596,16.173 90.596,9.83 81.082,9.83 	"/>
	<path style="fill:#FFFFFF;" d="M81.082,50.32c-2.259,1.097-3.974,1.811-5.138,2.145c-1.215,0.346-2.477,0.519-3.787,0.519
		c-2.646,0-4.812-0.733-6.509-2.202c-1.692-1.471-2.539-3.336-2.539-5.591c0-2.244,0.859-4.094,2.576-5.544
		c1.718-1.453,3.932-2.176,6.635-2.176c2.757,0,5.678,0.867,8.762,2.605v-5.664c-2.515-1.493-5.585-2.241-9.214-2.241
		c-4.551,0-8.243,1.274-11.061,3.825c-2.824,2.55-4.233,5.65-4.233,9.302c0,3.656,1.336,6.729,4.014,9.223
		c2.675,2.495,6.273,3.74,10.789,3.74c3.378,0,6.612-0.79,9.706-2.381V50.32L81.082,50.32z"/>
	<path style="fill:#FFFFFF;" d="M6.625,79.66c-0.067-1.527-0.891-2.148-2.116-2.148c-1.143,0-2.066,0.771-2.352,2.148H6.625
		L6.625,79.66z M2.09,80.5v0.034c0,1.797,1.293,2.854,2.721,2.854c1.041,0,1.763-0.269,2.502-0.822v1.008
		c-0.655,0.486-1.596,0.705-2.502,0.705c-2.117,0-3.729-1.444-3.729-3.829c0-2.2,1.512-3.829,3.477-3.829
		c1.847,0,3.072,1.108,3.072,3.191V80.5H2.09L2.09,80.5z"/>
	<path style="fill:#FFFFFF;" d="M9.529,77.176c0.974-0.354,2.082-0.555,3.073-0.555c1.848,0,2.973,0.722,2.973,2.553v4.938h-1.008
		v-4.736c0-1.494-1.059-1.813-2.049-1.813c-0.772,0-1.461,0.135-1.982,0.269v6.281H9.529V77.176L9.529,77.176z"/>
	<path style="fill:#FFFFFF;" d="M17.513,82.55c0.622,0.554,1.26,0.873,2.065,0.873c0.924,0,1.512-0.353,1.512-1.176
		c0-0.874-0.639-1.108-1.797-1.495c-1.293-0.437-1.848-0.974-1.848-2.149c0-1.293,0.975-1.981,2.301-1.981
		c0.723,0,1.428,0.151,1.999,0.555v1.092c-0.571-0.471-1.159-0.79-1.999-0.79c-0.806,0-1.326,0.437-1.326,1.125
		c0,0.672,0.402,1.024,1.527,1.378c1.277,0.386,2.133,0.873,2.133,2.199c0,1.444-1.125,2.1-2.502,2.1
		c-0.822,0-1.611-0.235-2.065-0.588V82.55L17.513,82.55z"/>
	<path style="fill:#FFFFFF;" d="M29.637,84.027c-0.89,0.168-1.797,0.252-2.553,0.252c-2.115,0-3.324-0.723-3.324-2.553v-4.938h1.007
		v4.887c0,1.377,1.092,1.73,2.251,1.73c0.504,0,1.074-0.033,1.611-0.102v-6.516h1.008V84.027L29.637,84.027z"/>
	<path style="fill:#FFFFFF;" d="M32.96,84.111h-1.008v-6.65c0.772-0.487,1.712-0.789,2.721-0.789c0.403,0,0.806,0.05,1.226,0.15
		v0.991c-0.437-0.151-0.957-0.185-1.293-0.185c-0.723,0-1.26,0.151-1.646,0.369V84.111L32.96,84.111z"/>
	<path style="fill:#FFFFFF;" d="M38.393,84.111h-1.007v-7.322h1.007V84.111L38.393,84.111z M37.134,74.506
		c0-0.42,0.353-0.756,0.756-0.756c0.42,0,0.755,0.336,0.755,0.756c0,0.402-0.335,0.755-0.755,0.755
		C37.487,75.261,37.134,74.908,37.134,74.506L37.134,74.506z"/>
	<path style="fill:#FFFFFF;" d="M40.707,77.176c0.974-0.354,2.083-0.555,3.073-0.555c1.847,0,2.973,0.722,2.973,2.553v4.938h-1.008
		v-4.736c0-1.494-1.059-1.813-2.049-1.813c-0.773,0-1.461,0.135-1.981,0.269v6.281h-1.008V77.176L40.707,77.176z"/>
	<path style="fill:#FFFFFF;" d="M54.141,77.764c-0.404-0.135-0.857-0.219-1.377-0.219c-2.033,0-3.208,1.074-3.208,2.872
		c0,1.763,1.175,2.871,3.073,2.871c0.604,0,1.008-0.101,1.512-0.285V77.764L54.141,77.764z M54.141,83.859
		c-0.252,0.168-0.924,0.319-1.512,0.319c-2.401,0-4.081-1.26-4.081-3.762c0-2.368,1.646-3.796,4.216-3.796
		c0.755,0,1.763,0.201,2.384,0.471v7.104c0,2.233-1.679,3.106-3.358,3.106c-0.891,0-1.729-0.201-2.268-0.453v-0.957
		c0.639,0.302,1.478,0.554,2.268,0.554c1.208,0,2.352-0.588,2.352-2.435V83.859L54.141,83.859z"/>
	<path style="fill:#FFFFFF;" d="M66.116,79.66c-0.066-1.527-0.891-2.148-2.116-2.148c-1.142,0-2.066,0.771-2.351,2.148H66.116
		L66.116,79.66z M61.582,80.5v0.034c0,1.797,1.293,2.854,2.721,2.854c1.041,0,1.763-0.269,2.503-0.822v1.008
		c-0.656,0.486-1.596,0.705-2.503,0.705c-2.116,0-3.728-1.444-3.728-3.829c0-2.2,1.511-3.829,3.476-3.829
		c1.847,0,3.073,1.108,3.073,3.191V80.5H61.582L61.582,80.5z"/>
	<polygon style="fill:#FFFFFF;" points="71.827,80.332 74.547,84.111 73.422,84.111 71.256,81.055 69.073,84.111 67.998,84.111 
		70.718,80.35 68.149,76.789 69.274,76.789 71.306,79.61 73.288,76.789 74.413,76.789 71.827,80.332 	"/>
	<path style="fill:#FFFFFF;" d="M81.016,78.233c-0.621-0.437-1.361-0.688-2.049-0.688c-1.511,0-2.821,1.008-2.821,2.922
		c0,1.848,1.293,2.889,2.889,2.889c0.772,0,1.427-0.252,2.099-0.688v1.058c-0.723,0.369-1.427,0.555-2.201,0.555
		c-2.049,0-3.812-1.428-3.812-3.829c0-2.452,1.813-3.829,3.796-3.829c0.806,0,1.443,0.185,2.099,0.555V78.233L81.016,78.233z"/>
	<path style="fill:#FFFFFF;" d="M87.812,79.66c-0.068-1.527-0.891-2.148-2.117-2.148c-1.141,0-2.064,0.771-2.35,2.148H87.812
		L87.812,79.66z M83.277,80.5v0.034c0,1.797,1.293,2.854,2.721,2.854c1.041,0,1.764-0.269,2.502-0.822v1.008
		c-0.654,0.486-1.596,0.705-2.502,0.705c-2.115,0-3.729-1.444-3.729-3.829c0-2.2,1.512-3.829,3.477-3.829
		c1.848,0,3.074,1.108,3.074,3.191V80.5H83.277L83.277,80.5z"/>
	<polygon style="fill:#FFFFFF;" points="91.717,84.111 90.708,84.111 90.708,72.691 91.717,72.691 91.717,84.111 	"/>
	<polygon style="fill:#FFFFFF;" points="95.018,84.111 94.01,84.111 94.01,72.691 95.018,72.691 95.018,84.111 	"/>
	<path style="fill:#FFFFFF;" d="M102.412,79.66c-0.066-1.527-0.891-2.148-2.115-2.148c-1.143,0-2.066,0.771-2.352,2.148H102.412
		L102.412,79.66z M97.879,80.5v0.034c0,1.797,1.293,2.854,2.721,2.854c1.041,0,1.762-0.269,2.502-0.822v1.008
		c-0.656,0.486-1.596,0.705-2.502,0.705c-2.117,0-3.729-1.444-3.729-3.829c0-2.2,1.512-3.829,3.477-3.829
		c1.848,0,3.072,1.108,3.072,3.191V80.5H97.879L97.879,80.5z"/>
	<path style="fill:#FFFFFF;" d="M105.316,77.176c0.975-0.354,2.084-0.555,3.074-0.555c1.848,0,2.973,0.722,2.973,2.553v4.938h-1.008
		v-4.736c0-1.494-1.059-1.813-2.049-1.813c-0.773,0-1.461,0.135-1.982,0.269v6.281h-1.008V77.176L105.316,77.176z"/>
	<path style="fill:#FFFFFF;" d="M119.053,78.233c-0.621-0.437-1.359-0.688-2.049-0.688c-1.51,0-2.82,1.008-2.82,2.922
		c0,1.848,1.293,2.889,2.889,2.889c0.771,0,1.428-0.252,2.1-0.688v1.058c-0.723,0.369-1.428,0.555-2.201,0.555
		c-2.049,0-3.812-1.428-3.812-3.829c0-2.452,1.814-3.829,3.797-3.829c0.805,0,1.443,0.185,2.098,0.555V78.233L119.053,78.233z"/>
	<path style="fill:#FFFFFF;" d="M125.852,79.66c-0.068-1.527-0.891-2.148-2.117-2.148c-1.143,0-2.064,0.771-2.352,2.148H125.852
		L125.852,79.66z M121.316,80.5v0.034c0,1.797,1.293,2.854,2.721,2.854c1.041,0,1.764-0.269,2.502-0.822v1.008
		c-0.654,0.486-1.596,0.705-2.502,0.705c-2.115,0-3.729-1.444-3.729-3.829c0-2.2,1.512-3.829,3.477-3.829
		c1.848,0,3.072,1.108,3.072,3.191V80.5H121.316L121.316,80.5z"/>
</g>
<g>
</g>
<g>
</g>
<g>
</g>
<g>
</g>
<g>
</g>
<g>
</g>
</svg>
