<?xml version="1.0" encoding="utf-8"?>
<!-- Generator: Adobe Illustrator 16.0.4, SVG Export Plug-In . SVG Version: 6.00 Build 0)  -->
<!DOCTYPE svg PUBLIC "-//W3C//DTD SVG 1.1//EN" "http://www.w3.org/Graphics/SVG/1.1/DTD/svg11.dtd">
<svg version="1.1" xmlns="http://www.w3.org/2000/svg" xmlns:xlink="http://www.w3.org/1999/xlink" x="0px" y="0px" width="3000px"
	 height="2636.95px" viewBox="0 0 3000 2636.95" enable-background="new 0 0 3000 2636.95" xml:space="preserve">
<g id="ARTWORK">
	<g opacity="0.15">
		<path fill="#FFFFFF" d="M2976.546,1508.323L-51.859,2616.95v-337.79l2719.126-959.458L-51.859,353.354V26.546l3028.406,1115.478
			V1508.323z"/>
	</g>
</g>
<g id="Layer_3">
	<g>
		<rect x="-374.378" y="-1675.793" fill="none" width="1829.635" height="1961.608"/>
	</g>
</g>
<g id="grid" display="none">
	<g display="inline">
		<rect x="-657.462" y="-1899.05" opacity="0.2" fill="#E5E5E5" width="1600.106" height="2532.099"/>
		<rect x="-17.646" y="-1899.035" opacity="0.2" fill="#D3BFAF" width="79.75" height="2532.659"/>
		<rect x="102.354" y="-1899.035" opacity="0.2" fill="#D3BFAF" width="79.75" height="2532.659"/>
		<rect x="222.354" y="-1899.035" opacity="0.2" fill="#D3BFAF" width="79.75" height="2532.659"/>
		<rect x="342.354" y="-1899.035" opacity="0.2" fill="#D3BFAF" width="79.75" height="2532.659"/>
		<rect x="462.354" y="-1899.035" opacity="0.2" fill="#D3BFAF" width="79.75" height="2532.659"/>
		<rect x="582.354" y="-1899.035" opacity="0.2" fill="#D3BFAF" width="79.75" height="2532.659"/>
		<rect x="702.354" y="-1899.035" opacity="0.2" fill="#D3BFAF" width="79.75" height="2532.659"/>
		<rect x="822.241" y="-1899.035" opacity="0.2" fill="#D3BFAF" width="79.75" height="2532.659"/>
		<g opacity="0.2">
			
				<line fill="none" stroke="#D5D6D7" stroke-width="1.0688" stroke-miterlimit="10" x1="-658.644" y1="1.872" x2="941.356" y2="1.872"/>
			
				<line fill="none" stroke="#D5D6D7" stroke-width="1.0688" stroke-miterlimit="10" x1="-658.644" y1="12.121" x2="941.356" y2="12.121"/>
			
				<line fill="none" stroke="#D5D6D7" stroke-width="1.0688" stroke-miterlimit="10" x1="-658.644" y1="22.205" x2="941.356" y2="22.205"/>
			
				<line fill="none" stroke="#D5D6D7" stroke-width="1.0688" stroke-miterlimit="10" x1="-658.644" y1="31.956" x2="941.356" y2="31.956"/>
			
				<line fill="none" stroke="#D5D6D7" stroke-width="1.0688" stroke-miterlimit="10" x1="-658.644" y1="42.205" x2="941.356" y2="42.205"/>
			
				<line fill="none" stroke="#D5D6D7" stroke-width="1.0688" stroke-miterlimit="10" x1="-658.644" y1="52.289" x2="941.356" y2="52.289"/>
			
				<line fill="none" stroke="#D5D6D7" stroke-width="1.0688" stroke-miterlimit="10" x1="-658.644" y1="62.121" x2="941.356" y2="62.121"/>
			
				<line fill="none" stroke="#D5D6D7" stroke-width="1.0688" stroke-miterlimit="10" x1="-658.644" y1="72.372" x2="941.356" y2="72.372"/>
			
				<line fill="none" stroke="#D5D6D7" stroke-width="1.0688" stroke-miterlimit="10" x1="-658.644" y1="82.456" x2="941.356" y2="82.456"/>
			
				<line fill="none" stroke="#D5D6D7" stroke-width="1.0688" stroke-miterlimit="10" x1="-658.644" y1="92.205" x2="941.356" y2="92.205"/>
			
				<line fill="none" stroke="#D5D6D7" stroke-width="1.0688" stroke-miterlimit="10" x1="-658.644" y1="102.456" x2="941.356" y2="102.456"/>
			
				<line fill="none" stroke="#D5D6D7" stroke-width="1.0688" stroke-miterlimit="10" x1="-658.644" y1="112.54" x2="941.356" y2="112.54"/>
			
				<line fill="none" stroke="#D5D6D7" stroke-width="1.0688" stroke-miterlimit="10" x1="-658.644" y1="121.996" x2="941.356" y2="121.996"/>
			
				<line fill="none" stroke="#D5D6D7" stroke-width="1.0688" stroke-miterlimit="10" x1="-658.644" y1="132.246" x2="941.356" y2="132.246"/>
			
				<line fill="none" stroke="#D5D6D7" stroke-width="1.0688" stroke-miterlimit="10" x1="-658.644" y1="142.33" x2="941.356" y2="142.33"/>
			
				<line fill="none" stroke="#D5D6D7" stroke-width="1.0688" stroke-miterlimit="10" x1="-658.644" y1="152.08" x2="941.356" y2="152.08"/>
			
				<line fill="none" stroke="#D5D6D7" stroke-width="1.0688" stroke-miterlimit="10" x1="-658.644" y1="162.33" x2="941.356" y2="162.33"/>
			
				<line fill="none" stroke="#D5D6D7" stroke-width="1.0688" stroke-miterlimit="10" x1="-658.644" y1="172.414" x2="941.356" y2="172.414"/>
			
				<line fill="none" stroke="#D5D6D7" stroke-width="1.0688" stroke-miterlimit="10" x1="-658.644" y1="181.996" x2="941.356" y2="181.996"/>
			
				<line fill="none" stroke="#D5D6D7" stroke-width="1.0688" stroke-miterlimit="10" x1="-658.644" y1="192.246" x2="941.356" y2="192.246"/>
			
				<line fill="none" stroke="#D5D6D7" stroke-width="1.0688" stroke-miterlimit="10" x1="-658.644" y1="202.33" x2="941.356" y2="202.33"/>
			
				<line fill="none" stroke="#D5D6D7" stroke-width="1.0688" stroke-miterlimit="10" x1="-658.644" y1="212.08" x2="941.356" y2="212.08"/>
			
				<line fill="none" stroke="#D5D6D7" stroke-width="1.0688" stroke-miterlimit="10" x1="-658.644" y1="222.33" x2="941.356" y2="222.33"/>
			
				<line fill="none" stroke="#D5D6D7" stroke-width="1.0688" stroke-miterlimit="10" x1="-658.644" y1="232.414" x2="941.356" y2="232.414"/>
			
				<line fill="none" stroke="#D5D6D7" stroke-width="1.0688" stroke-miterlimit="10" x1="-658.644" y1="241.996" x2="941.356" y2="241.996"/>
			
				<line fill="none" stroke="#D5D6D7" stroke-width="1.0688" stroke-miterlimit="10" x1="-658.644" y1="252.246" x2="941.356" y2="252.246"/>
			
				<line fill="none" stroke="#D5D6D7" stroke-width="1.0688" stroke-miterlimit="10" x1="-658.644" y1="262.33" x2="941.356" y2="262.33"/>
			
				<line fill="none" stroke="#D5D6D7" stroke-width="1.0688" stroke-miterlimit="10" x1="-658.644" y1="272.08" x2="941.356" y2="272.08"/>
			
				<line fill="none" stroke="#D5D6D7" stroke-width="1.0688" stroke-miterlimit="10" x1="-658.644" y1="282.33" x2="941.356" y2="282.33"/>
			
				<line fill="none" stroke="#D5D6D7" stroke-width="1.0688" stroke-miterlimit="10" x1="-658.644" y1="292.414" x2="941.356" y2="292.414"/>
			
				<line fill="none" stroke="#D5D6D7" stroke-width="1.0688" stroke-miterlimit="10" x1="-658.644" y1="302.246" x2="941.356" y2="302.246"/>
			
				<line fill="none" stroke="#D5D6D7" stroke-width="1.0688" stroke-miterlimit="10" x1="-658.644" y1="311.83" x2="941.356" y2="311.83"/>
			
				<line fill="none" stroke="#D5D6D7" stroke-width="1.0688" stroke-miterlimit="10" x1="-658.644" y1="322.08" x2="941.356" y2="322.08"/>
			
				<line fill="none" stroke="#D5D6D7" stroke-width="1.0688" stroke-miterlimit="10" x1="-658.644" y1="332.164" x2="941.356" y2="332.164"/>
			
				<line fill="none" stroke="#D5D6D7" stroke-width="1.0688" stroke-miterlimit="10" x1="-658.644" y1="341.914" x2="941.356" y2="341.914"/>
			
				<line fill="none" stroke="#D5D6D7" stroke-width="1.0688" stroke-miterlimit="10" x1="-658.644" y1="352.164" x2="941.356" y2="352.164"/>
			
				<line fill="none" stroke="#D5D6D7" stroke-width="1.0688" stroke-miterlimit="10" x1="-658.644" y1="362.246" x2="941.356" y2="362.246"/>
			
				<line fill="none" stroke="#D5D6D7" stroke-width="1.0688" stroke-miterlimit="10" x1="-658.644" y1="372.414" x2="941.356" y2="372.414"/>
			
				<line fill="none" stroke="#D5D6D7" stroke-width="1.0688" stroke-miterlimit="10" x1="-658.644" y1="381.996" x2="941.356" y2="381.996"/>
			
				<line fill="none" stroke="#D5D6D7" stroke-width="1.0688" stroke-miterlimit="10" x1="-658.644" y1="392.246" x2="941.356" y2="392.246"/>
			
				<line fill="none" stroke="#D5D6D7" stroke-width="1.0688" stroke-miterlimit="10" x1="-658.644" y1="402.33" x2="941.356" y2="402.33"/>
			
				<line fill="none" stroke="#D5D6D7" stroke-width="1.0688" stroke-miterlimit="10" x1="-658.644" y1="412.08" x2="941.356" y2="412.08"/>
			
				<line fill="none" stroke="#D5D6D7" stroke-width="1.0688" stroke-miterlimit="10" x1="-658.644" y1="422.33" x2="941.356" y2="422.33"/>
			
				<line fill="none" stroke="#D5D6D7" stroke-width="1.0688" stroke-miterlimit="10" x1="-658.644" y1="432.414" x2="941.356" y2="432.414"/>
			
				<line fill="none" stroke="#D5D6D7" stroke-width="1.0688" stroke-miterlimit="10" x1="-658.644" y1="442.414" x2="941.356" y2="442.414"/>
			
				<line fill="none" stroke="#D5D6D7" stroke-width="1.0688" stroke-miterlimit="10" x1="-658.644" y1="451.996" x2="941.356" y2="451.996"/>
			
				<line fill="none" stroke="#D5D6D7" stroke-width="1.0688" stroke-miterlimit="10" x1="-658.644" y1="462.246" x2="941.356" y2="462.246"/>
			
				<line fill="none" stroke="#D5D6D7" stroke-width="1.0688" stroke-miterlimit="10" x1="-658.644" y1="472.33" x2="941.356" y2="472.33"/>
			
				<line fill="none" stroke="#D5D6D7" stroke-width="1.0688" stroke-miterlimit="10" x1="-658.644" y1="482.08" x2="941.356" y2="482.08"/>
			
				<line fill="none" stroke="#D5D6D7" stroke-width="1.0688" stroke-miterlimit="10" x1="-658.644" y1="492.33" x2="941.356" y2="492.33"/>
			
				<line fill="none" stroke="#D5D6D7" stroke-width="1.0688" stroke-miterlimit="10" x1="-658.644" y1="502.414" x2="941.356" y2="502.414"/>
			
				<line fill="none" stroke="#D5D6D7" stroke-width="1.0688" stroke-miterlimit="10" x1="-658.644" y1="512.414" x2="941.356" y2="512.414"/>
			
				<line fill="none" stroke="#D5D6D7" stroke-width="1.0688" stroke-miterlimit="10" x1="-658.644" y1="521.996" x2="941.356" y2="521.996"/>
			
				<line fill="none" stroke="#D5D6D7" stroke-width="1.0688" stroke-miterlimit="10" x1="-658.644" y1="532.246" x2="941.356" y2="532.246"/>
			
				<line fill="none" stroke="#D5D6D7" stroke-width="1.0688" stroke-miterlimit="10" x1="-658.644" y1="542.33" x2="941.356" y2="542.33"/>
			
				<line fill="none" stroke="#D5D6D7" stroke-width="1.0688" stroke-miterlimit="10" x1="-658.644" y1="552.08" x2="941.356" y2="552.08"/>
			
				<line fill="none" stroke="#D5D6D7" stroke-width="1.0688" stroke-miterlimit="10" x1="-658.644" y1="562.33" x2="941.356" y2="562.33"/>
			
				<line fill="none" stroke="#D5D6D7" stroke-width="1.0688" stroke-miterlimit="10" x1="-658.644" y1="572.414" x2="941.356" y2="572.414"/>
			
				<line fill="none" stroke="#D5D6D7" stroke-width="1.0688" stroke-miterlimit="10" x1="-658.644" y1="582.414" x2="941.356" y2="582.414"/>
			
				<line fill="none" stroke="#D5D6D7" stroke-width="1.0688" stroke-miterlimit="10" x1="-658.644" y1="591.996" x2="941.356" y2="591.996"/>
			
				<line fill="none" stroke="#D5D6D7" stroke-width="1.0688" stroke-miterlimit="10" x1="-658.644" y1="602.246" x2="941.356" y2="602.246"/>
			
				<line fill="none" stroke="#D5D6D7" stroke-width="1.0688" stroke-miterlimit="10" x1="-658.644" y1="612.33" x2="941.356" y2="612.33"/>
			
				<line fill="none" stroke="#D5D6D7" stroke-width="1.0688" stroke-miterlimit="10" x1="-658.644" y1="622.08" x2="941.356" y2="622.08"/>
			
				<line fill="none" stroke="#D5D6D7" stroke-width="1.0688" stroke-miterlimit="10" x1="-658.644" y1="632.33" x2="941.356" y2="632.33"/>
		</g>
		<line opacity="0.2" fill="none" stroke="#D39D80" stroke-miterlimit="10" x1="22.609" y1="631.723" x2="22.609" y2="-1898.704"/>
		<line opacity="0.2" fill="none" stroke="#D39D80" stroke-miterlimit="10" x1="62.109" y1="631.723" x2="62.109" y2="-1898.704"/>
		
			<line opacity="0.2" fill="none" stroke="#D39D80" stroke-miterlimit="10" x1="102.609" y1="631.723" x2="102.609" y2="-1898.704"/>
		
			<line opacity="0.2" fill="none" stroke="#D39D80" stroke-miterlimit="10" x1="142.109" y1="631.723" x2="142.109" y2="-1898.704"/>
		
			<line opacity="0.2" fill="none" stroke="#D39D80" stroke-miterlimit="10" x1="182.609" y1="631.723" x2="182.609" y2="-1898.704"/>
		
			<line opacity="0.2" fill="none" stroke="#D39D80" stroke-miterlimit="10" x1="222.109" y1="631.723" x2="222.109" y2="-1898.704"/>
		
			<line opacity="0.2" fill="none" stroke="#D39D80" stroke-miterlimit="10" x1="262.609" y1="631.723" x2="262.609" y2="-1898.704"/>
		
			<line opacity="0.2" fill="none" stroke="#D39D80" stroke-miterlimit="10" x1="302.109" y1="631.723" x2="302.109" y2="-1898.704"/>
		
			<line opacity="0.2" fill="none" stroke="#D39D80" stroke-miterlimit="10" x1="342.609" y1="631.723" x2="342.609" y2="-1898.704"/>
		
			<line opacity="0.2" fill="none" stroke="#D39D80" stroke-miterlimit="10" x1="382.109" y1="631.723" x2="382.109" y2="-1898.704"/>
		
			<line opacity="0.2" fill="none" stroke="#D39D80" stroke-miterlimit="10" x1="422.275" y1="631.723" x2="422.275" y2="-1898.704"/>
		
			<line opacity="0.2" fill="none" stroke="#D39D80" stroke-miterlimit="10" x1="461.775" y1="631.723" x2="461.775" y2="-1898.704"/>
		
			<line opacity="0.2" fill="none" stroke="#D39D80" stroke-miterlimit="10" x1="502.275" y1="631.723" x2="502.275" y2="-1898.704"/>
		
			<line opacity="0.2" fill="none" stroke="#D39D80" stroke-miterlimit="10" x1="541.775" y1="631.723" x2="541.775" y2="-1898.704"/>
		
			<line opacity="0.2" fill="none" stroke="#D39D80" stroke-miterlimit="10" x1="582.275" y1="631.723" x2="582.275" y2="-1898.704"/>
		
			<line opacity="0.2" fill="none" stroke="#D39D80" stroke-miterlimit="10" x1="621.775" y1="631.723" x2="621.775" y2="-1898.704"/>
		
			<line opacity="0.2" fill="none" stroke="#D39D80" stroke-miterlimit="10" x1="662.275" y1="631.723" x2="662.275" y2="-1898.704"/>
		
			<line opacity="0.2" fill="none" stroke="#D39D80" stroke-miterlimit="10" x1="701.775" y1="631.723" x2="701.775" y2="-1898.704"/>
		
			<line opacity="0.2" fill="none" stroke="#D39D80" stroke-miterlimit="10" x1="742.608" y1="631.723" x2="742.608" y2="-1898.704"/>
		
			<line opacity="0.2" fill="none" stroke="#D39D80" stroke-miterlimit="10" x1="782.108" y1="631.723" x2="782.108" y2="-1898.704"/>
		
			<line opacity="0.2" fill="none" stroke="#D39D80" stroke-miterlimit="10" x1="822.608" y1="631.723" x2="822.608" y2="-1898.704"/>
		
			<line opacity="0.2" fill="none" stroke="#D39D80" stroke-miterlimit="10" x1="862.111" y1="631.723" x2="862.111" y2="-1898.704"/>
		
			<line opacity="0.2" fill="none" stroke="#D39D80" stroke-miterlimit="10" x1="901.611" y1="631.723" x2="901.611" y2="-1898.704"/>
	</g>
</g>
</svg>
