<?xml version="1.0" encoding="utf-8"?>
<!-- Generator: Adobe Illustrator 16.0.4, SVG Export Plug-In . SVG Version: 6.00 Build 0)  -->
<!DOCTYPE svg PUBLIC "-//W3C//DTD SVG 1.1//EN" "http://www.w3.org/Graphics/SVG/1.1/DTD/svg11.dtd">
<svg version="1.1" xmlns="http://www.w3.org/2000/svg" xmlns:xlink="http://www.w3.org/1999/xlink" x="0px" y="0px" width="161px"
	 height="61px" viewBox="0 0 161 61" enable-background="new 0 0 161 61" xml:space="preserve">
<g id="ARTWORK">
	<g>
		<path fill="#FFFFFF" d="M94.089,38.961c0.434-0.138,1.071-0.288,1.779-0.288c1.241,0,1.843,0.528,1.843,1.617v4.69h1.229v-4.884
			c0-1.719-0.979-2.589-2.912-2.589c-0.702,0-1.433,0.157-1.939,0.321v-4.104h-1.229V44.98h1.229V38.961L94.089,38.961z"/>
		<path fill="#FFFFFF" d="M104.166,44.044c-1.453,0-2.427-1.095-2.427-2.721c0-1.624,0.974-2.714,2.427-2.714
			c1.451,0,2.425,1.09,2.425,2.714C106.591,42.949,105.617,44.044,104.166,44.044L104.166,44.044z M107.837,41.323
			c0-2.247-1.51-3.816-3.671-3.816c-2.163,0-3.672,1.569-3.672,3.816c0,2.248,1.509,3.817,3.672,3.817
			C106.327,45.14,107.837,43.571,107.837,41.323L107.837,41.323z"/>
		<path fill="#FFFFFF" d="M111.726,40.749c-1.163-0.363-1.381-0.705-1.381-1.204c0-0.587,0.437-0.952,1.146-0.952
			c0.68,0,1.213,0.21,1.842,0.729l0.213,0.175v-1.393l-0.056-0.039c-0.522-0.37-1.195-0.557-1.999-0.557
			c-1.423,0-2.345,0.799-2.345,2.038c0,1.301,0.716,1.805,1.866,2.193c1.141,0.379,1.644,0.577,1.644,1.318
			c0,0.664-0.445,1.003-1.324,1.003c-0.689,0-1.277-0.25-1.902-0.811l-0.219-0.192v1.454l0.052,0.038
			c0.472,0.366,1.263,0.593,2.069,0.593c1.565,0,2.537-0.823,2.537-2.151C113.868,41.665,113.049,41.149,111.726,40.749
			L111.726,40.749z"/>
		<path fill="#FFFFFF" d="M118.205,44.044c-0.538,0-1.006-0.084-1.424-0.252v-4.977c0.337-0.102,0.836-0.158,1.358-0.158
			c1.768,0,2.782,0.972,2.782,2.666C120.921,43,119.878,44.044,118.205,44.044L118.205,44.044z M118.139,37.507
			c-0.808,0-1.722,0.169-2.502,0.461L115.552,38v9.89h1.229v-2.975c0.386,0.141,0.92,0.226,1.424,0.226
			c2.406,0,3.962-1.498,3.962-3.817C122.167,38.899,120.699,37.507,118.139,37.507L118.139,37.507z"/>
		<polygon fill="#FFFFFF" points="123.802,44.98 125.031,44.98 125.031,37.669 123.802,37.669 123.802,44.98 		"/>
		<path fill="#FFFFFF" d="M124.415,36.458c0.465,0,0.858-0.394,0.858-0.858c0-0.472-0.386-0.858-0.858-0.858
			c-0.465,0-0.857,0.393-0.857,0.858C123.558,36.056,123.959,36.458,124.415,36.458L124.415,36.458z"/>
		<path fill="#FFFFFF" d="M131.193,44.736v-1.147l-0.188,0.095c-0.487,0.242-0.83,0.375-1.254,0.375
			c-0.439,0-0.889-0.138-0.889-1.134v-4.173h1.989v-1.083h-1.989v-1.714h-1.23v1.714h-1.082v1.083h1.082v4.269
			c0,1.369,0.679,2.119,1.909,2.119c0.565,0,1.083-0.118,1.579-0.369L131.193,44.736L131.193,44.736z"/>
		<path fill="#FFFFFF" d="M136.125,43.965c-0.288,0.049-0.593,0.079-0.858,0.079c-0.972,0-2.133-0.203-2.133-1.15
			c0-1.042,1.5-1.198,2.392-1.198h0.599V43.965L136.125,43.965z M135.219,45.109c0.675,0,1.438-0.098,2.039-0.263l0.095-0.027
			v-4.968c0-1.532-0.856-2.343-2.475-2.343c-0.772,0-1.568,0.201-2.243,0.566l-0.069,0.036v1.213l0.191-0.098
			c0.545-0.287,1.168-0.551,2.007-0.551c0.879,0,1.361,0.441,1.361,1.244v0.729h-0.664c-2.259,0-3.557,0.818-3.557,2.248
			C131.905,43.903,132.481,45.109,135.219,45.109L135.219,45.109z"/>
		<polygon fill="#FFFFFF" points="140.636,33.724 139.411,33.724 139.411,44.98 140.636,44.98 140.636,33.724 		"/>
		<path fill="#FFFFFF" d="M95.367,49.299c0.425,0,0.785,0.122,1.168,0.396l0.207,0.146v-1.24l-0.055-0.039
			c-0.368-0.262-0.78-0.38-1.337-0.38c-1.461,0-2.297,0.901-2.297,2.476v1.632H91.97v1.086h1.083v6.226h1.231v-6.226h1.938V52.29
			h-1.938v-1.615C94.284,49.461,94.832,49.299,95.367,49.299L95.367,49.299z"/>
		<path fill="#FFFFFF" d="M100.349,58.663c-1.453,0-2.428-1.094-2.428-2.716c0-1.623,0.975-2.718,2.428-2.718
			c1.449,0,2.425,1.095,2.425,2.718C102.774,57.569,101.798,58.663,100.349,58.663L100.349,58.663z M100.349,52.128
			c-2.163,0-3.671,1.57-3.671,3.818c0,2.247,1.508,3.817,3.671,3.817c2.16,0,3.67-1.571,3.67-3.817
			C104.019,53.698,102.509,52.128,100.349,52.128L100.349,52.128z"/>
		<path fill="#FFFFFF" d="M110.182,58.58c-0.464,0.053-0.966,0.083-1.423,0.083c-1.372,0-2.039-0.503-2.039-1.537V52.29h-1.227
			v4.885c0,1.739,1.089,2.588,3.33,2.588c0.765,0,1.647-0.088,2.483-0.243l0.106-0.022V52.29h-1.23V58.58L110.182,58.58z"/>
		<path fill="#FFFFFF" d="M116.667,52.128c-0.957,0-2.053,0.198-3.003,0.543l-0.084,0.03v6.901h1.229v-6.077
			c0.626-0.156,1.21-0.233,1.779-0.233c1.242,0,1.844,0.53,1.844,1.618v4.692h1.231v-4.885
			C119.663,53,118.654,52.128,116.667,52.128L116.667,52.128z"/>
		<path fill="#FFFFFF" d="M126.63,58.583c-0.33,0.043-0.705,0.064-1.196,0.064c-1.835,0-2.976-1.035-2.976-2.701
			c0-1.633,1.086-2.686,2.766-2.686c0.554,0,1.049,0.096,1.406,0.274V58.583L126.63,58.583z M126.63,52.375
			c-0.404-0.168-0.972-0.247-1.406-0.247c-2.363,0-4.01,1.57-4.01,3.818c0,2.354,1.615,3.817,4.22,3.817
			c0.791,0,1.595-0.093,2.326-0.264l0.101-0.024V48.345h-1.23V52.375L126.63,52.375z"/>
		<path fill="#FFFFFF" d="M132.827,58.663c-0.973,0-2.134-0.198-2.134-1.148c0-1.041,1.5-1.196,2.393-1.196h0.6v2.268
			C133.398,58.634,133.091,58.663,132.827,58.663L132.827,58.663z M132.438,52.128c-0.772,0-1.57,0.202-2.245,0.563l-0.066,0.04
			v1.213l0.189-0.1c0.545-0.286,1.164-0.553,2.009-0.553c0.876,0,1.36,0.443,1.36,1.246v0.731h-0.664
			c-2.261,0-3.557,0.816-3.557,2.245c0,1.011,0.574,2.216,3.313,2.216c0.68,0,1.44-0.098,2.04-0.263l0.096-0.026v-4.967
			C134.914,52.94,134.056,52.128,132.438,52.128L132.438,52.128z"/>
		<path fill="#FFFFFF" d="M139.363,58.68c-0.443,0-0.893-0.135-0.893-1.133v-4.171h1.989V52.29h-1.989v-1.715h-1.229v1.715h-1.083
			v1.086h1.083v4.27c0,1.365,0.679,2.118,1.909,2.118c0.565,0,1.08-0.122,1.579-0.368l0.072-0.036V58.21l-0.188,0.094
			C140.127,58.547,139.784,58.68,139.363,58.68L139.363,58.68z"/>
		<path fill="#FFFFFF" d="M142.693,49.366c-0.465,0-0.857,0.39-0.857,0.855c0,0.456,0.402,0.855,0.857,0.855
			c0.465,0,0.859-0.392,0.859-0.855C143.552,49.748,143.166,49.366,142.693,49.366L142.693,49.366z"/>
		<polygon fill="#FFFFFF" points="142.08,59.602 143.309,59.602 143.309,52.29 142.08,52.29 142.08,59.602 		"/>
		<path fill="#FFFFFF" d="M148.613,58.663c-1.453,0-2.428-1.094-2.428-2.716c0-1.623,0.975-2.718,2.428-2.718
			c1.451,0,2.426,1.095,2.426,2.718C151.039,57.569,150.064,58.663,148.613,58.663L148.613,58.663z M148.613,52.128
			c-2.162,0-3.669,1.57-3.669,3.818c0,2.247,1.507,3.817,3.669,3.817c2.16,0,3.671-1.571,3.671-3.817
			C152.284,53.698,150.773,52.128,148.613,52.128L148.613,52.128z"/>
		<path fill="#FFFFFF" d="M157.009,52.128c-0.96,0-2.056,0.198-3.005,0.543l-0.087,0.03v6.901h1.231v-6.077
			c0.627-0.156,1.208-0.233,1.779-0.233c1.24,0,1.844,0.53,1.844,1.618v4.692H160v-4.885C160,53,158.993,52.128,157.009,52.128
			L157.009,52.128z"/>
		<polygon fill="#FFFFFF" points="17.96,27.188 30.199,1.817 23.224,1.817 16.458,16.974 9.312,1.817 2.264,1.817 15.095,27.188 
			17.96,27.188 		"/>
		<path fill="#FFFFFF" d="M50.847,26.646c2.057-0.639,3.586-1.461,4.6-2.47V12.6H45.409v5.073h3.682v3.739
			c-1.408,0.602-2.815,0.904-4.209,0.904c-2.637,0-4.76-0.689-6.379-2.073c-1.614-1.387-2.419-3.195-2.419-5.428
			c0-2.335,0.805-4.254,2.419-5.759c1.619-1.505,3.919-2.262,6.906-2.262c3.098,0,6.268,0.789,9.508,2.353V3.596
			c-2.95-1.4-6.296-2.096-10.035-2.096c-4.529,0-8.221,1.217-11.066,3.648c-2.849,2.439-4.274,5.586-4.274,9.448
			c0,3.778,1.426,6.89,4.274,9.333c2.845,2.452,6.488,3.676,10.92,3.676C46.751,27.604,48.788,27.284,50.847,26.646L50.847,26.646z"
			/>
		<path fill="#FFFFFF" d="M22.891,48.184c0,2.016-0.583,3.566-1.754,4.662c-1.173,1.092-2.733,1.637-4.687,1.637
			c-1.883,0-3.404-0.536-4.561-1.6c-1.161-1.068-1.741-2.491-1.741-4.261V33.999H3.794v14.48c0,3.637,1.113,6.427,3.342,8.374
			c2.227,1.94,5.355,2.91,9.387,2.91c4.077,0,7.216-0.959,9.411-2.872c2.2-1.919,3.298-4.735,3.298-8.45V33.999h-6.341V48.184
			L22.891,48.184z"/>
		<path fill="#FFFFFF" d="M48.132,54.023c-0.741,0.467-1.954,0.701-3.643,0.701h-3.568V48.73h4.441c1.179,0,2.119,0.259,2.822,0.777
			c0.704,0.507,1.056,1.208,1.056,2.093C49.241,52.75,48.872,53.558,48.132,54.023L48.132,54.023z M40.921,38.652h3.314
			c1.021,0,1.812,0.255,2.381,0.76c0.572,0.512,0.859,1.15,0.859,1.925c0,0.787-0.287,1.442-0.859,1.963
			c-0.569,0.522-1.36,0.777-2.381,0.777h-3.314V38.652L40.921,38.652z M50.531,45.417c2.32-1.177,3.48-2.863,3.48-5.067
			c0-1.717-0.749-3.202-2.247-4.462c-1.5-1.26-3.56-1.889-6.185-1.889H34.583v25.374h12.384c2.946,0,5.182-0.69,6.699-2.071
			c1.518-1.383,2.28-3.176,2.28-5.38c0-1.548-0.467-2.903-1.396-4.07C53.622,46.688,52.281,45.876,50.531,45.417L50.531,45.417z"/>
		<polygon fill="#FFFFFF" points="83.346,1.817 77.005,1.817 77.005,11.332 83.346,1.817 		"/>
		<polygon fill="#FFFFFF" points="66.618,11.332 66.618,1.817 60.277,1.817 60.277,27.188 66.618,27.188 66.618,17.673 
			72.775,17.673 77.005,11.332 66.618,11.332 		"/>
		<polygon fill="#7DA935" points="83.346,11.331 83.346,1.817 72.775,17.673 77.003,17.673 77.003,27.188 83.346,27.188 
			83.346,17.673 92.861,17.673 92.861,11.331 83.346,11.331 		"/>
		<path fill="#FFFFFF" d="M83.346,51.821c-2.259,1.096-3.974,1.81-5.138,2.144c-1.215,0.346-2.476,0.518-3.787,0.518
			c-2.646,0-4.812-0.733-6.509-2.202c-1.692-1.47-2.54-3.335-2.54-5.591c0-2.244,0.86-4.093,2.576-5.544
			c1.718-1.453,3.932-2.175,6.635-2.175c2.757,0,5.678,0.867,8.762,2.604v-5.664c-2.515-1.493-5.585-2.241-9.214-2.241
			c-4.551,0-8.243,1.275-11.061,3.825c-2.825,2.55-4.233,5.65-4.233,9.303c0,3.655,1.336,6.729,4.014,9.222
			c2.675,2.495,6.273,3.741,10.789,3.741c3.378,0,6.612-0.79,9.705-2.381V51.821L83.346,51.821z"/>
	</g>
</g>
<g id="Layer_3">
</g>
<g id="grid" display="none">
</g>
</svg>
